<?xml version="1.0" standalone="no"?><!DOCTYPE svg PUBLIC "-//W3C//DTD SVG 1.1//EN" "http://www.w3.org/Graphics/SVG/1.1/DTD/svg11.dtd"><svg t="1595816079058" class="icon" viewBox="0 0 1024 1024" version="1.1" xmlns="http://www.w3.org/2000/svg" p-id="15256" xmlns:xlink="http://www.w3.org/1999/xlink" width="200" height="200"><defs><style type="text/css">html, * { user-select: text !important; }
</style></defs><path d="M539.3 155.4h-0.5c0 0.5 0 0.5 0.5 0zM63 605.2c0.5 1 1 1.6 1 2.6 0-1.1-0.5-2.1-1-2.6z m643.4 8.3c30.7 0 55.2 25 55.2 55.2 0 12-3.6 22.9-10.4 31.8h0.5c30.7-51.5 48.4-111.9 48.4-176 0-190-153.6-343.6-343.6-343.6-190 0-343.6 153.6-343.6 343.6 0 61.9 16.7 120.3 45.3 170.2h0.5c-4.2-7.8-6.8-16.7-6.8-26 0-30.7 25-55.2 55.2-55.2 20.3 0 37.5 10.9 47.4 27.1-19.3-33.8-30.7-73.4-30.7-115.6 0-128.6 104.1-232.7 232.7-232.7S689.8 396.4 689.8 525c0 42.7-11.5 82.3-31.2 116.6 9.8-16.6 27.5-28.1 47.8-28.1z" fill="#28B75A" p-id="15257"></path><path d="M256.7 642.7c-0.5-1-1-1.6-1.6-2.1 0.5 0.5 0.5 1.5 1.6 2.1z" fill="#28B75A" p-id="15258"></path><path d="M762.1 669.2c0-30.7-25-55.2-55.2-55.2-20.8 0-38.5 11.5-47.9 28.1-40 69.3-115 116.1-201.4 116.1-85.4 0-159.8-46.3-200.4-115h-0.5c-9.4-17.2-27.6-29.2-48.4-29.2-30.7 0-55.2 25-55.2 55.2 0 11.5 3.6 22.4 9.9 31.2 58.8 100.5 168.7 168.1 294.1 168.1 125.5 0 234.8-67.2 295.2-167.6h-0.5c6.2-8.8 10.3-19.7 10.3-31.7z m-564.3 54.2c3.1 0.5 6.2 1 9.9 1-3.1 0-6.7-0.5-9.9-1z m-17.7-6.8c1 0.5 2.6 1.6 3.6 2.1-1.5-0.5-2.5-1.1-3.6-2.1z m7.3 4.2c2.6 1 5.2 2.1 8.3 2.6-3.1-1.1-5.7-1.6-8.3-2.6z m75-61c0.5 3.1 1 6.2 1 9.4 0-3.1-0.5-6.2-1-9.4z m-2.1-6.7c0.5 1 0.5 2.1 1 3.1 0-1-0.5-2.1-1-3.1z m392 6.7c-0.5 3.1-1 6.2-1 9.4 0-3.1 0-6.2 1-9.4z m1.6-7.8c-0.5 1.6-1 2.6-1 4.2 0.4-1.6 1-3.1 1-4.2z m62.4 71.4c-3.1 0.5-6.8 1-9.9 1 3.7 0 6.8-0.5 9.9-1z m28.1-14.1c-2.1 1.6-4.2 3.6-6.2 5.2 2.1-1.6 4.2-3.1 6.2-5.2z m-8.3 6.8c-2.1 1-4.2 2.6-6.2 3.6 2-1.5 4.1-2.6 6.2-3.6z m-8.8 4.1c-2.6 1-5.7 2.1-8.8 2.6 3-0.5 6.2-1 8.8-2.6z m19.7-13.5c1.6-2.1 3.6-3.6 4.7-5.7-1.5 2.1-3.1 4.1-4.7 5.7z" fill="#F8B616" p-id="15259"></path><path d="M657 657.8c0 30.5 24.7 55.2 55.2 55.2 30.5 0 55.2-24.7 55.2-55.2 0-30.5-24.7-55.2-55.2-55.2-30.5 0-55.2 24.7-55.2 55.2" fill="#289349" p-id="15260"></path><path d="M651.3 669.2c0 30.5 24.7 55.2 55.2 55.2 30.5 0 55.2-24.7 55.2-55.2S736.9 614 706.4 614c-30.4 0-55.1 24.7-55.1 55.2" fill="#F8B616" p-id="15261"></path><path d="M146.8 657.8c0 30.5 24.7 55.2 55.2 55.2 30.5 0 55.2-24.7 55.2-55.2 0-30.5-24.7-55.2-55.2-55.2-30.5 0-55.2 24.7-55.2 55.2" fill="#289349" p-id="15262"></path><path d="M152.5 669.2c0 30.5 24.7 55.2 55.2 55.2 30.5 0 55.2-24.7 55.2-55.2S238.2 614 207.7 614c-30.5 0-55.2 24.7-55.2 55.2M850.6 813.4c0 19.7 10.5 37.9 27.6 47.8 17.1 9.9 38.1 9.9 55.2 0s27.6-28.1 27.6-47.8-10.5-37.9-27.6-47.8a55.01 55.01 0 0 0-55.2 0c-17 9.9-27.6 28.1-27.6 47.8" fill="#F8B616" p-id="15263"></path></svg>