<?xml version="1.0" standalone="no"?><!DOCTYPE svg PUBLIC "-//W3C//DTD SVG 1.1//EN" "http://www.w3.org/Graphics/SVG/1.1/DTD/svg11.dtd"><svg t="1595910160202" class="icon" viewBox="0 0 1024 1024" version="1.1" xmlns="http://www.w3.org/2000/svg" p-id="24387" xmlns:xlink="http://www.w3.org/1999/xlink" width="200" height="200"><defs><style type="text/css">html, * { user-select: text !important; }
</style></defs><path d="M872.96 145.92c5.12 15.36 12.8 28.16 30.72 28.16-5.12-15.36-12.8-28.16-30.72-28.16z" fill="#CCD983" p-id="24388"></path><path d="M783.36 148.48c33.28 30.72 66.56 64 97.28 94.72l94.72 94.72 10.24 10.24c2.56 0 2.56 2.56 5.12 2.56 10.24 10.24 20.48 20.48 28.16 30.72h2.56v-130.56c5.12-23.04 0-97.28-5.12-107.52-15.36-69.12-94.72-130.56-171.52-130.56h-204.8M849.92 130.56" fill="#CCD983" p-id="24389"></path><path d="M652.8 15.36c0-2.56-2.56-2.56-2.56-5.12h-468.48c-43.52 0-81.92 17.92-112.64 48.64-56.32 48.64-71.68 115.2-64 184.32V785.92c0 25.6-2.56 48.64 2.56 74.24 0 2.56 0 5.12 2.56 5.12 10.24 35.84 20.48 69.12 46.08 97.28 12.8 12.8 28.16 25.6 43.52 33.28 7.68 5.12 17.92 10.24 25.6 12.8 10.24 5.12 20.48 7.68 28.16 10.24 17.92 5.12 30.72 2.56 43.52 2.56h558.08c33.28 0 66.56 2.56 99.84 0 25.6-2.56 53.76-15.36 76.8-30.72 23.04-15.36 43.52-33.28 58.88-56.32 7.68-10.24 15.36-23.04 17.92-35.84 5.12-12.8 10.24-25.6 12.8-38.4 2.56-12.8 0-25.6 0-38.4v-56.32V376.32m-151.04-145.92c0 5.12 2.56 33.28 0 38.4-5.12 33.28-5.12 66.56-5.12 99.84 0 10.24-7.68 17.92-17.92 15.36-15.36-2.56-20.48 7.68-20.48 20.48l-7.68 46.08c0 7.68 2.56 10.24 7.68 12.8 7.68 2.56 12.8 0 15.36-5.12 5.12-7.68 2.56-20.48 12.8-20.48 7.68 0 12.8 5.12 20.48 10.24 5.12 5.12 12.8 10.24 17.92 15.36 2.56 5.12 0 12.8-2.56 15.36-2.56 10.24-5.12 20.48-10.24 30.72-2.56 7.68-5.12 12.8-10.24 17.92h-7.68c-25.6-2.56-51.2-2.56-76.8-5.12-10.24 0-20.48-2.56-25.6-10.24-2.56-2.56-5.12-5.12-5.12-7.68-2.56-5.12 0-12.8 0-17.92l7.68-53.76c2.56-23.04 2.56-46.08 7.68-69.12 2.56-15.36 12.8-25.6 28.16-25.6 7.68 0 7.68-7.68 7.68-15.36 2.56-20.48 2.56-40.96 5.12-61.44 0-12.8 0-23.04 2.56-35.84 0-7.68 5.12-20.48-2.56-28.16-12.8-10.24-51.2-10.24-61.44 0-12.8 12.8-10.24 38.4-10.24 53.76-2.56 25.6-5.12 51.2-7.68 74.24-2.56 15.36-2.56 28.16 15.36 35.84 2.56 2.56 5.12 2.56 7.68 7.68 5.12 10.24-2.56 17.92-7.68 25.6-7.68 10.24-12.8 20.48-20.48 30.72-12.8 20.48-25.6 43.52-38.4 64-5.12 7.68-7.68 12.8-17.92 5.12-7.68-5.12-15.36-7.68-23.04-12.8-17.92-12.8-20.48-23.04-7.68-43.52v-2.56c15.36-20.48 28.16-43.52 43.52-64 5.12-7.68 7.68-15.36-2.56-20.48-17.92-7.68-15.36-23.04-12.8-38.4 5.12-40.96 12.8-79.36 17.92-120.32 2.56-10.24 2.56-23.04 5.12-33.28 2.56-17.92 23.04-20.48 35.84-20.48 7.68 0 17.92 0 25.6 2.56 2.56 0 28.16 0 30.72 2.56M312.32 192v28.16c5.12 46.08 5.12 46.08-38.4 56.32h-5.12c-5.12 0-7.68 2.56-7.68 7.68 0 5.12 5.12 7.68 10.24 7.68 7.68-2.56 17.92-2.56 25.6-5.12 33.28-7.68 35.84-7.68 35.84 20.48v10.24l-7.68 7.68c-2.56 0-5.12 0-7.68 2.56-10.24 2.56-20.48 2.56-30.72 5.12-56.32 10.24-112.64 25.6-168.96 33.28h-2.56v-2.56-10.24c-2.56-20.48 5.12-30.72 25.6-33.28 5.12 0 7.68-2.56 12.8-2.56 10.24-2.56 20.48-5.12 30.72-5.12 5.12 0 10.24-2.56 10.24-10.24s-7.68-7.68-12.8-7.68c-12.8 2.56-23.04 5.12-35.84 7.68-7.68 2.56-10.24 2.56-15.36 0-2.56-2.56-5.12-5.12-5.12-10.24v-5.12-76.8-7.68c5.12-12.8 12.8-15.36 25.6-17.92l130.56-23.04c15.36-7.68 23.04 0 30.72 30.72z m281.6 309.76c-12.8 5.12-28.16 0-43.52-5.12-10.24-5.12-15.36-15.36-12.8-25.6 5.12-30.72 7.68-61.44 12.8-92.16 0-2.56 2.56-7.68-2.56-7.68-5.12-2.56-5.12 2.56-7.68 5.12-2.56 5.12-5.12 10.24-7.68 12.8-7.68 5.12-12.8-2.56-15.36-10.24-10.24-17.92-12.8-35.84-2.56-53.76 12.8-20.48 35.84-35.84 51.2-56.32 5.12-7.68 15.36-12.8 20.48-20.48s-17.92-5.12-20.48-5.12h-30.72c-5.12 0-15.36 2.56-15.36-7.68 2.56-10.24 2.56-17.92 5.12-28.16v-2.56c7.68-15.36 20.48-17.92 35.84-15.36 12.8 2.56 20.48 0 20.48-15.36 2.56-35.84 17.92-33.28 48.64-30.72 5.12 0 7.68 2.56 7.68 7.68 0 5.12 0 10.24-2.56 15.36-2.56 12.8-7.68 28.16 15.36 25.6 7.68 0 12.8 10.24 15.36 17.92v2.56c0 15.36-5.12 25.6-15.36 35.84-7.68 7.68-17.92 15.36-17.92 25.6-2.56 10.24 12.8 15.36 17.92 23.04s2.56 48.64-7.68 53.76c-10.24 5.12-12.8-12.8-23.04-12.8-5.12 0-7.68 48.64-7.68 53.76-2.56 28.16-7.68 58.88-10.24 87.04-2.56 10.24 0 20.48-7.68 23.04z m-232.96-194.56c20.48-17.92 40.96-35.84 58.88-56.32 7.68-10.24 15.36-15.36 25.6 0 7.68 10.24 17.92 20.48 17.92 35.84-23.04 30.72-53.76 53.76-79.36 81.92-2.56 2.56-5.12 2.56-10.24 0-28.16-15.36-30.72-38.4-12.8-61.44z m133.12 343.04c-5.12 43.52-7.68 46.08-51.2 40.96-35.84-2.56-71.68-5.12-107.52-10.24-7.68 0-15.36 0-20.48 7.68-5.12 10.24 5.12 12.8 7.68 17.92 28.16 25.6 56.32 51.2 81.92 79.36 15.36 15.36 33.28 30.72 51.2 48.64l12.8 12.8c2.56 2.56 5.12 5.12 5.12 7.68 2.56 5.12 2.56 2.56-2.56 5.12l-30.72 23.04c-23.04 15.36-28.16 15.36-48.64-5.12-33.28-38.4-69.12-79.36-102.4-117.76-2.56-2.56-5.12-7.68-10.24-10.24-28.16 43.52-56.32 87.04-81.92 130.56-7.68 15.36-15.36 15.36-28.16 7.68-7.68-5.12-17.92-7.68-25.6-12.8-17.92-10.24-20.48-20.48-10.24-35.84l30.72-46.08c17.92-25.6 35.84-48.64 53.76-71.68 7.68-10.24 12.8-20.48 20.48-28.16 5.12-7.68 5.12-12.8-5.12-12.8-25.6-2.56-51.2-5.12-76.8-5.12-5.12 0-12.8 0-17.92-2.56 2.56-12.8 2.56-28.16 5.12-40.96 2.56-20.48 10.24-28.16 30.72-25.6 30.72 2.56 61.44 5.12 92.16 12.8 23.04 5.12 30.72-7.68 40.96-23.04 0-2.56 2.56-2.56 2.56-5.12 10.24-12.8 17.92-25.6 28.16-38.4 12.8-17.92 20.48-20.48 40.96-7.68 28.16 15.36 28.16 15.36 10.24 43.52-5.12 10.24-12.8 17.92-17.92 28.16-7.68 10.24-5.12 12.8 7.68 12.8 35.84 2.56 71.68 7.68 107.52 10.24 7.68-7.68 10.24-2.56 7.68 10.24z m-46.08-289.28c7.68-7.68 12.8-7.68 20.48 0 20.48 25.6 23.04 30.72 10.24 51.2v2.56c-23.04 25.6-48.64 53.76-71.68 79.36-20.48 23.04-20.48 23.04-40.96 0-10.24-12.8-17.92-23.04-10.24-40.96l2.56-2.56c30.72-28.16 61.44-58.88 89.6-89.6z m-161.28 69.12c-5.12 0-12.8-2.56-12.8 7.68 0 7.68 7.68 7.68 12.8 10.24 15.36 5.12 33.28 5.12 51.2 12.8 2.56 0 2.56 0 5.12 2.56-15.36 40.96-15.36 40.96-61.44 30.72 0 15.36 2.56 30.72-12.8 40.96h-5.12c-2.56 0-7.68 0-10.24 2.56-28.16 7.68-33.28 5.12-35.84-25.6 0-12.8-2.56-23.04-5.12-40.96-12.8 17.92-25.6 33.28-35.84 46.08 0 2.56-2.56 2.56-2.56 2.56l-2.56 2.56c-10.24 10.24-17.92 7.68-30.72-2.56-5.12-5.12-10.24-10.24-15.36-12.8-2.56 0-5.12-2.56-7.68-2.56 2.56-2.56 5.12-7.68 7.68-10.24v-2.56c10.24-12.8 20.48-25.6 33.28-40.96v-2.56c-23.04 5.12-23.04-7.68-23.04-23.04v-30.72c0-12.8 5.12-20.48 20.48-20.48 38.4-7.68 79.36-12.8 117.76-23.04 5.12 0 12.8 0 17.92-2.56 28.16-5.12 28.16-5.12 30.72 23.04 12.8 51.2 12.8 51.2-35.84 58.88z m153.6-245.76l-2.56 2.56c-25.6 20.48-48.64 38.4-74.24 58.88-5.12 2.56-7.68 7.68-12.8 0-10.24-15.36-23.04-28.16-23.04-46.08v-2.56c23.04-25.6 56.32-40.96 81.92-61.44h7.68c15.36 5.12 28.16 30.72 23.04 48.64z m360.96 97.28c-2.56 2.56-5.12 5.12-10.24 7.68-10.24 5.12-23.04 10.24-35.84 12.8-12.8 5.12-17.92 0-17.92-12.8 2.56-12.8 2.56-25.6 5.12-38.4s7.68-15.36 17.92-7.68l30.72 23.04 7.68 7.68c5.12 5.12 5.12 5.12 2.56 7.68z m-133.12 243.2c56.32 30.72 115.2 64 171.52 94.72 2.56 2.56 5.12 5.12 10.24 7.68 10.24 7.68 30.72 10.24 28.16 17.92-5.12 15.36-17.92 28.16-33.28 38.4-7.68 5.12-17.92 2.56-23.04-2.56-35.84-30.72-69.12-5.12-104.96-2.56-5.12 0-5.12 5.12-5.12 7.68 2.56 7.68 2.56 15.36 5.12 20.48 0 10.24 5.12 15.36 15.36 12.8 10.24-2.56 23.04-5.12 35.84-7.68 20.48-2.56 40.96 25.6 33.28 43.52-2.56 5.12-7.68 2.56-10.24 5.12-15.36 2.56-33.28 7.68-48.64 7.68-10.24 0-12.8 5.12-10.24 12.8 2.56 5.12 2.56 12.8 2.56 20.48 0 10.24 5.12 12.8 15.36 10.24 33.28-5.12 66.56-12.8 99.84-17.92 12.8-2.56 25.6-5.12 35.84 7.68v5.12c2.56 15.36 10.24 33.28 5.12 43.52-5.12 7.68-28.16 7.68-43.52 10.24-94.72 12.8-192 28.16-286.72 40.96-25.6 2.56-40.96-10.24-38.4-38.4 0-7.68 2.56-12.8 12.8-15.36 20.48-2.56 40.96-7.68 61.44-10.24l46.08-7.68c5.12 0 7.68-2.56 7.68-7.68-2.56-12.8 0-25.6-7.68-35.84-5.12-7.68-17.92 0-28.16 2.56h-2.56c-17.92 2.56-28.16-5.12-30.72-20.48-5.12-17.92 2.56-28.16 20.48-28.16 7.68 0 17.92-2.56 25.6-5.12 2.56 0 7.68 0 7.68-5.12 0-12.8 0-25.6-5.12-35.84-5.12-7.68-15.36 0-20.48 0-23.04 5.12-48.64 2.56-64 25.6-5.12 7.68-15.36 5.12-23.04 2.56-10.24-5.12-17.92-10.24-28.16-15.36-10.24-5.12-7.68-7.68-2.56-15.36 15.36-20.48 28.16-40.96 43.52-61.44 0-2.56 2.56-2.56 2.56-5.12 23.04-30.72 46.08-64 69.12-94.72 25.6-17.92 33.28-17.92 61.44-5.12z" fill="#4BB909" p-id="24390"></path><path d="M732.16 629.76c-28.16-17.92-51.2-30.72-76.8-46.08-5.12-5.12-7.68-2.56-12.8 2.56-15.36 23.04-28.16 43.52-46.08 69.12 48.64-7.68 89.6-17.92 135.68-25.6zM852.48 133.12c-5.12 10.24 0 23.04 5.12 30.72 12.8 17.92 35.84 46.08 56.32 20.48 10.24-10.24-2.56-23.04-7.68-33.28-7.68-7.68-17.92-15.36-23.04-23.04h5.12c7.68 0 15.36 7.68 23.04 12.8 2.56 2.56 28.16 30.72 28.16 12.8 0-2.56 0-5.12-2.56-7.68l-15.36-15.36c-5.12-2.56-7.68-7.68-10.24-10.24-7.68-5.12-15.36-12.8-25.6-12.8-12.8 0-23.04 12.8-30.72 20.48 0 2.56-2.56 2.56-2.56 5.12z m46.08 38.4c-17.92 0-28.16-12.8-30.72-28.16 17.92 0 25.6 12.8 30.72 28.16zM936.96 171.52c-5.12 0-7.68 2.56-10.24 5.12-5.12 5.12-15.36 15.36-15.36 23.04 0 10.24 7.68 17.92 15.36 23.04 12.8 10.24 33.28 33.28 51.2 17.92 7.68-7.68 17.92-20.48 15.36-30.72-5.12-23.04-33.28-43.52-56.32-38.4z m7.68 15.36c7.68-2.56 17.92-2.56 23.04 5.12 12.8 12.8 7.68 35.84-10.24 35.84s-35.84-33.28-12.8-40.96zM803.84 110.08c5.12 5.12 10.24 10.24 15.36 12.8 12.8 7.68 25.6 0 35.84-10.24 23.04-23.04-2.56-43.52-20.48-58.88-2.56-2.56-7.68-10.24-12.8-10.24-2.56 0-12.8 5.12-10.24 7.68 5.12 5.12 10.24 10.24 17.92 15.36 7.68 5.12 15.36 10.24 17.92 20.48 2.56 2.56 2.56 7.68 0 7.68-5.12 2.56-25.6-23.04-30.72-28.16-7.68-7.68-12.8-7.68-17.92 2.56 10.24 10.24 20.48 20.48 33.28 30.72 2.56 2.56 7.68 5.12 2.56 7.68-17.92-2.56-25.6-20.48-35.84-28.16-5.12-5.12-17.92-10.24-17.92 2.56 0 10.24 10.24 15.36 17.92 20.48 0 2.56 2.56 5.12 5.12 7.68zM261.12 381.44c-17.92 2.56-35.84 5.12-51.2 10.24-5.12 0-10.24 5.12-7.68 12.8 2.56 5.12 5.12 7.68 12.8 7.68 17.92-2.56 33.28-5.12 51.2-10.24 5.12 0 7.68-5.12 7.68-12.8-2.56-5.12-5.12-7.68-12.8-7.68zM174.08 448c12.8 7.68 25.6 12.8 35.84 17.92 2.56-25.6 2.56-25.6-35.84-17.92zM248.32 235.52c-20.48 2.56-43.52 7.68-64 10.24-5.12 0-7.68 2.56-7.68 7.68 0 5.12 5.12 7.68 10.24 7.68 20.48-5.12 40.96-7.68 64-10.24 5.12 0 7.68-2.56 7.68-10.24-2.56-2.56-5.12-5.12-10.24-5.12zM189.44 220.16c17.92-2.56 38.4-7.68 56.32-10.24 5.12 0 7.68-5.12 7.68-10.24s-5.12-5.12-10.24-5.12c-20.48 2.56-38.4 7.68-58.88 10.24-5.12 0-7.68 2.56-7.68 10.24 2.56 5.12 7.68 7.68 12.8 5.12z" fill="#4BB909" p-id="24391"></path></svg>