<?xml version="1.0" encoding="UTF-8" standalone="no"?>
<!DOCTYPE svg PUBLIC "-//W3C//DTD SVG 1.1//EN" "http://www.w3.org/Graphics/SVG/1.1/DTD/svg11.dtd">
<!-- 由 Microsoft Visio, SVG Export 生成 ico.svg Page-1 -->
<svg xmlns="http://www.w3.org/2000/svg" xmlns:xlink="http://www.w3.org/1999/xlink" xmlns:ev="http://www.w3.org/2001/xml-events"
		xmlns:v="http://schemas.microsoft.com/visio/2003/SVGExtensions/" width="2.5874in" height="2.5874in"
		viewBox="0 0 186.293 186.293" xml:space="preserve" color-interpolation-filters="sRGB" class="st3">
	<v:documentProperties v:langID="2052" v:metric="true" v:viewMarkup="false">
		<v:userDefs>
			<v:ud v:nameU="msvSubprocessMaster" v:prompt="" v:val="VT4(Rectangle)"/>
			<v:ud v:nameU="msvNoAutoConnect" v:val="VT0(1):26"/>
		</v:userDefs>
	</v:documentProperties>

	<style type="text/css">
	<![CDATA[
		.st1 {fill:#040000;fill-opacity:0;stroke:none;stroke-linecap:butt;stroke-width:0.146484}
		.st2 {fill:#c55a11;stroke:none;stroke-linecap:butt;stroke-width:0.146484}
		.st3 {fill:none;fill-rule:evenodd;font-size:12px;overflow:visible;stroke-linecap:square;stroke-miterlimit:3}
	]]>
	</style>

	<g v:mID="0" v:index="1" v:groupContext="foregroundPage">
		<v:userDefs>
			<v:ud v:nameU="msvThemeOrder" v:val="VT0(0):26"/>
		</v:userDefs>
		<title>页-1</title>
		<v:pageProperties v:drawingScale="0.0393701" v:pageScale="0.0393701" v:drawingUnits="24" v:shadowOffsetX="9"
				v:shadowOffsetY="-9"/>
		<g id="shape66-1" v:mID="66" v:groupContext="shape" transform="translate(18.1465,-18.1465)">
			<title>工作表.66</title>
			<rect x="0" y="36.293" width="150" height="150" class="st1"/>
		</g>
		<g id="shape67-3" v:mID="67" v:groupContext="shape" transform="translate(30.8965,-18.1465)">
			<title>工作表.67</title>
			<path d="M74.83 55.54 A85.1667 85.1667 -180 0 0 53.92 54.29 C17.75 57.04 0 99.88 7.42 130.21 C15 107.38 35.75 84.13 60.33
						 83.96 A44.5833 44.5833 0 0 1 69.17 84.63 L66.67 109.13 L84.42 93.21 L102.08 77.38 L89.75 56.79 L77.25 36.29
						 L74.83 55.54 ZM48.17 167.13 A85.25 85.25 -180 0 0 68.83 168.96 C105.08 167.13 123.83 124.79 117.17 93.96
						 C108.83 116.54 87.75 139.29 63.17 138.79 A61 61 0 0 1 54.33 137.88 L57.33 113.38 L39.33 129.13 L21.25 144.63
						 L33.25 165.46 L45.58 186.29 L48.17 167.13 Z" class="st2"/>
		</g>
	</g>
</svg>
