<svg id="Layer_1" data-name="Layer 1" xmlns="http://www.w3.org/2000/svg" viewBox="0 0 49.5 49.5"><defs><style>.cls-1,.cls-3{fill:#fbbc05}.cls-2{fill:none}.cls-2,.cls-3{stroke:#1a1a1a;stroke-miterlimit:10;stroke-width:2.26px}.cls-4{fill:#4285f4}.cls-5{fill:#00c853}.cls-6{fill:#ed4956}</style></defs><title>Artboard 22</title><g id="_Group_" data-name="&lt;Group&gt;"><g id="_Group_2" data-name="&lt;Group&gt;"><path id="_Path_" data-name="&lt;Path&gt;" class="cls-1" transform="rotate(-63.71 24.128 20.747)" d="M7.41 16.87h33.42v7.76H7.41z"/><path id="_Path_2" data-name="&lt;Path&gt;" class="cls-2" d="M13.62 33.92l6.48 3.4"/></g><path id="_Path_3" data-name="&lt;Path&gt;" class="cls-3" d="M12.42 47.29h21.84"/></g><path class="cls-4" d="M37.22 29.4a5.61 5.61 0 0 0 4-4l.75-2.78.75 2.78a5.61 5.61 0 0 0 4 4l2.78.75-2.78.75a5.61 5.61 0 0 0-4 4l-.75 2.78-.75-2.78a5.61 5.61 0 0 0-4-4l-2.78-.75z"/><path class="cls-5" d="M2.31 23.65A3.87 3.87 0 0 0 5 20.92L5.56 19l.52 1.92a3.87 3.87 0 0 0 2.72 2.73l1.92.52-1.92.52a3.87 3.87 0 0 0-2.73 2.73l-.52 1.92L5 27.41a3.87 3.87 0 0 0-2.73-2.73l-1.88-.52z"/><path class="cls-6" d="M9.39 7.4a2.89 2.89 0 0 0 2-2l.39-1.44.39 1.44a2.89 2.89 0 0 0 2 2l1.44.39-1.44.39a2.89 2.89 0 0 0-2 2l-.39 1.44-.39-1.44a2.89 2.89 0 0 0-2-2L8 7.79z"/><path id="_Path_4" data-name="&lt;Path&gt;" class="cls-2" d="M13.25 34.01l14.8-29.96L35 7.49 20.2 37.45l-6.78 5.14-.17-8.58z"/></svg>