<?xml version="1.0" standalone="no"?><!DOCTYPE svg PUBLIC "-//W3C//DTD SVG 1.1//EN" "http://www.w3.org/Graphics/SVG/1.1/DTD/svg11.dtd"><svg t="1595821557357" class="icon" viewBox="0 0 1024 1024" version="1.1" xmlns="http://www.w3.org/2000/svg" p-id="16845" xmlns:xlink="http://www.w3.org/1999/xlink" width="200" height="200"><defs><style type="text/css">html, * { user-select: text !important; }
</style></defs><path d="M157.461312 0h708.074437c86.252693 0 157.461312 70.205681 157.461313 156.458374V866.538688c0 86.252693-71.208619 156.458374-157.461313 156.458374h-708.074437c-86.252693 0-157.461312-70.205681-157.461312-156.458374v-710.080314c0-86.252693 71.208619-156.458374 157.461312-156.458374z" fill="#FFFFFF" p-id="16846"></path><path d="M182.53477 260.763957c4.011753 0 9.026445 1.002938 12.035259 4.011753 13.038198 8.023506 24.070519 18.052889 36.105779 27.079334 34.099902 26.076396 72.211557 47.1381 111.326151 66.193928 37.108717 18.052889 75.220372 37.108717 108.317336 62.182174 22.064643 18.052889 41.12047 43.126347 43.126347 72.211557v449.316357c-5.014691 3.008815-12.03526 4.011753-16.047013-2.005877v-415.216454c0-13.038198 1.002938-27.079334-4.011753-40.117532-6.01763-16.047013-19.055828-29.085211-32.094026-41.12047-22.064643-19.055828-49.143976-31.091087-74.217434-44.129285-40.117532-18.052889-82.24094-33.096964-122.358472-50.146915-21.061704-10.029383-42.123408-21.061704-63.185112-31.091087-3.008815-4.011753-1.002938-10.029383-2.005877-15.044075 2.005877-14.041136 0-28.082272 3.008815-42.123408z" fill="#AC0000" p-id="16847"></path><path d="M737.159647 483.416259c26.076396-14.041136 50.146915-31.091087 75.220373-46.135162 0 13.038198 2.005877 25.073457 1.002938 38.111655-42.123408 27.079334-84.246817 52.152791-126.370225 78.229187-21.061704 13.038198-41.12047 26.076396-62.182175 38.111656 0-12.03526-2.005877-25.073457-1.002938-37.108717 24.070519-17.049951 50.146915-31.091087 74.217434-47.1381 4.011753-8.023506-4.011753-20.058766 6.01763-25.073458 11.032321-6.01763 21.061704-13.038198 32.094025-19.055827 0 7.020568 0 13.038198 1.002938 20.058766z m-463.357492-29.085211c15.044074 7.020568 31.091087 15.044074 39.114593 30.088149 6.01763 12.03526 9.026445 25.073457 12.03526 38.111655l54.158668 273.802155c-9.026445-5.014691-19.055828-10.029383-28.082272-16.047013-6.01763-25.073457-11.032321-50.146915-16.047013-75.220372-32.094025-19.055828-65.190989-38.111655-97.285015-56.164545-6.01763 18.052889-13.038198 37.108717-19.055828 55.161607-10.029383-5.014691-19.055828-11.032321-28.082272-16.047013 27.079334-78.229187 56.164545-155.455436 83.243879-233.684623m-24.070519 159.467189c25.073457 14.041136 50.146915 29.085211 76.22331 43.126347l-27.079334-135.39667c-1.002938-7.020568-3.008815-14.041136-9.026445-19.055828-13.038198 37.108717-27.079334 74.217434-40.117531 111.326151z m520.524975-105.308521c11.032321-7.020568 23.067581-15.044074 35.102841-21.061704-17.049951 45.132223-37.108717 90.264447-55.161607 135.39667 15.044074 13.038198 31.091087 24.070519 47.1381 37.108717 11.032321-5.014691 19.055828-12.03526 30.088149-18.05289 0 12.03526 1.002938 23.067581 1.002938 35.102841-14.041136 9.026445-28.082272 18.052889-42.123408 26.076395-4.011753 2.005877-10.029383 6.01763-14.041136 2.005877-15.044074-11.032321-29.085211-22.064643-44.129285-33.096964-11.032321 24.070519-21.061704 48.141038-32.094026 72.211557-5.014691 11.032321-10.029383 23.067581-21.061704 29.085211-12.03526 7.020568-24.070519 15.044074-36.105779 22.064643 0-12.03526-1.002938-23.067581-1.002938-35.102841 9.026445-10.029383 25.073457-12.03526 30.088149-25.073457 12.03526-27.079334 24.070519-54.158668 36.105779-80.235064-21.061704-18.052889-43.126347-35.10284-64.188051-53.15573 11.032321-8.023506 23.067581-14.041136 34.099902-22.064642 3.008815-2.005877 6.01763-4.011753 9.026444-4.011753 15.044074 9.026445 28.082272 21.061704 43.126347 29.08521 11.032321-27.079334 23.067581-54.158668 34.099902-81.238002 3.008815-5.014691 4.011753-12.03526 10.029383-15.044074z" fill="#F5F5F6" p-id="16848"></path><path d="M429.257591 93.273262c18.052889-10.029383 37.108717-18.052889 57.167482-21.061705 26.076396-3.008815 53.15573 5.014691 76.223311 17.049951 41.12047 21.061704 82.24094 42.123408 123.36141 64.188051 11.032321-8.023506 21.061704-18.052889 33.096964-25.073457 5.014691 0 5.014691 5.014691 5.014692 9.026445v70.20568c0 5.014691-5.014691 8.023506-10.029383 8.023507h-96.282077c-4.011753 1.002938-8.023506-2.005877-10.029383-5.014692 10.029383-8.023506 21.061704-15.044074 32.094026-23.067581-34.099902-18.052889-68.199804-36.105779-103.302645-54.158668-16.047013-8.023506-35.10284-14.041136-53.155729-7.020568-19.055828 7.020568-35.10284 19.055828-54.158668 27.079334-8.023506 3.008815-16.047013 3.008815-24.07052 3.008815h-44.129285c-6.01763 0-13.038198-1.002938-19.055827-3.008815 0-7.020568 7.020568-11.032321 13.038198-15.044074 24.070519-17.049951 49.143976-31.091087 74.217434-45.132223z m-317.93144 191.561214c4.011753-2.005877 9.026445 0 13.038198 2.005877 20.058766 9.026445 37.108717 23.067581 57.167483 31.091087 21.061704 10.029383 42.123408 21.061704 63.185112 31.091087 40.117532 18.052889 82.24094 32.094025 122.358472 50.146915 26.076396 13.038198 53.15573 24.070519 74.217434 44.129285 13.038198 12.03526 25.073457 24.070519 32.094026 41.12047 5.014691 13.038198 4.011753 27.079334 4.011753 40.117532v415.216454c-1.002938 4.011753 2.005877 11.032321-4.011753 13.038198-7.020568 3.008815-13.038198-3.008815-18.05289-7.020568-45.132223-38.111655-98.287953-64.188051-151.443682-86.252694-41.12047-18.052889-83.243879-34.099902-120.352596-59.173359-28.082272-18.052889-54.158668-42.123408-67.196866-73.214496-4.011753-10.029383-7.020568-21.061704-8.023506-33.096963v-398.166504c1.002938-3.008815 0-8.023506 3.008815-11.032321m162.476004 169.496572c-27.079334 78.229187-56.164545 155.455436-83.243879 233.684623 9.026445 5.014691 18.052889 11.032321 28.082272 16.047013 6.01763-18.052889 13.038198-37.108717 19.055828-55.161607 33.096964 18.052889 65.190989 37.108717 97.285015 56.164545 5.014691 25.073457 10.029383 50.146915 16.047013 75.220372 9.026445 6.01763 18.052889 11.032321 28.082272 16.047013l-54.158668-273.802155c-3.008815-13.038198-6.01763-26.076396-12.03526-38.111655-8.023506-15.044074-24.070519-23.067581-39.114593-30.088149z" fill="#E21308" p-id="16849"></path><path d="M249.731636 613.798237c13.038198-37.108717 27.079334-74.217434 40.117531-111.326151 6.01763 4.011753 8.023506 12.03526 9.026445 19.055828l27.079334 135.39667c-26.076396-14.041136-51.149853-29.085211-76.22331-43.126347z" fill="#E21308" p-id="16850"></path><path d="M308.904995 191.561214c0-6.01763 6.01763-9.026445 11.032321-8.023506h96.282077c4.011753 0 6.01763 3.008815 9.026444 5.014692-10.029383 9.026445-22.064643 15.044074-32.094025 24.070519 35.10284 18.052889 70.205681 36.105779 104.305583 54.158668 15.044074 7.020568 32.094025 12.03526 49.143976 7.020568 18.052889-6.01763 33.096964-16.047013 49.143977-25.073458 14.041136-8.023506 30.088149-5.014691 45.132223-5.014691 16.047013 1.002938 33.096964-3.008815 48.141038 3.008815-1.002938 7.020568-8.023506 11.032321-13.038198 15.044074-26.076396 17.049951-53.15573 33.096964-81.238002 48.141038-22.064643 12.03526-47.1381 19.055828-72.211557 17.049951-19.055828-2.005877-38.111655-8.023506-55.161606-17.049951-41.12047-21.061704-82.24094-42.123408-122.358472-63.185112-9.026445 7.020568-17.049951 14.041136-26.076396 21.061704-3.008815 2.005877-6.01763 6.01763-10.029383 3.008815-2.005877-4.011753-1.002938-10.029383-2.005876-14.041136 3.008815-23.067581 2.005877-44.129285 2.005876-65.19099z m584.713027 94.2762c4.011753-2.005877 11.032321-4.011753 13.038197 2.005877 2.005877 6.01763 1.002938 12.03526 1.002939 18.052889v387.134182c-3.008815 36.105779-25.073457 68.199804-53.15573 90.264447-32.094025 25.073457-69.202742 43.126347-106.311459 59.173359-56.164545 24.070519-114.334966 47.1381-164.481881 83.243879-11.032321 8.023506-21.061704 17.049951-32.094025 25.073457-3.008815 3.008815-8.023506 2.005877-12.03526 1.002939-1.002938-4.011753-1.002938-8.023506-1.002938-12.03526-1.002938-39.114594 0-78.229187 0-118.346719v-299.87855c0-14.041136-2.005877-29.085211 5.014691-42.123409 5.014691-11.032321 13.038198-21.061704 21.061705-29.08521 18.052889-18.052889 40.117532-29.085211 62.182174-41.12047 33.096964-16.047013 68.199804-30.088149 103.302644-43.126347 36.105779-14.041136 70.205681-31.091087 105.308521-48.141038 19.055828-10.029383 38.111655-23.067581 58.170422-32.094026m-156.458375 197.578845c0-6.01763-1.002938-13.038198-1.002938-19.055828-11.032321 6.01763-21.061704 13.038198-32.094025 19.055828-10.029383 4.011753-1.002938 17.049951-6.01763 25.073457-24.070519 16.047013-50.146915 30.088149-74.217434 47.1381-1.002938 12.03526 1.002938 25.073457 1.002938 37.108717 21.061704-12.03526 41.12047-26.076396 62.182175-38.111655l126.370225-78.229188c2.005877-13.038198-1.002938-25.073457-1.002938-38.111655-26.076396 13.038198-50.146915 31.091087-75.220373 45.132224m33.096964 25.073457c-6.01763 3.008815-8.023506 10.029383-10.029383 16.047013-11.032321 27.079334-23.067581 53.15573-34.099902 81.238002-15.044074-8.023506-28.082272-20.058766-43.126347-29.085211-3.008815 0-6.01763 3.008815-9.026444 4.011753-11.032321 7.020568-23.067581 14.041136-34.099902 22.064643 22.064643 17.049951 43.126347 35.10284 64.188051 53.155729-12.03526 27.079334-24.070519 53.15573-36.105779 80.235064-5.014691 13.038198-21.061704 15.044074-30.088149 25.073458 0 12.03526 1.002938 23.067581 1.002938 35.10284 12.03526-7.020568 24.070519-15.044074 36.105779-22.064643 11.032321-6.01763 16.047013-18.052889 21.061704-29.08521 10.029383-24.070519 21.061704-48.141038 32.094026-72.211558 15.044074 10.029383 29.085211 22.064643 44.129285 33.096964 4.011753 3.008815 10.029383 0 14.041136-2.005876 14.041136-9.026445 28.082272-18.052889 42.123408-26.076396 0-12.03526-1.002938-23.067581-1.002938-35.10284-10.029383 6.01763-19.055828 13.038198-30.088149 18.052889-15.044074-13.038198-31.091087-24.070519-47.1381-37.108717 18.052889-45.132223 38.111655-89.261508 55.161607-135.39667-12.03526 5.014691-23.067581 13.038198-35.102841 20.058766z" fill="#1F71CD" p-id="16851"></path><path d="M811.377081 271.796278c7.020568-5.014691 14.041136-11.032321 22.064643-11.032321 3.008815 10.029383 1.002938 21.061704 2.005876 31.091087 0 9.026445 1.002938 17.049951-1.002938 26.076396-35.10284 17.049951-69.202742 34.099902-105.308521 48.141038-35.10284 13.038198-69.202742 27.079334-103.302644 43.126347-22.064643 12.03526-44.129285 23.067581-62.182175 41.12047-9.026445 9.026445-16.047013 18.052889-21.061704 29.08521-6.01763 13.038198-5.014691 28.082272-5.014691 42.123409v299.87855c0 39.114594-1.002938 78.229187 0 118.346719-4.011753 5.014691-11.032321 5.014691-16.047013 2.005877v-437.281097c-1.002938-26.076396 11.032321-52.152791 29.08521-71.208619 14.041136-15.044074 31.091087-26.076396 48.141039-37.108717 41.12047-25.073457 87.255632-43.126347 128.376101-68.199804 31.091087-16.047013 58.170421-36.105779 84.246817-56.164545z" fill="#0054B8" p-id="16852"></path></svg>