<?xml version="1.0" standalone="no"?><!DOCTYPE svg PUBLIC "-//W3C//DTD SVG 1.1//EN" "http://www.w3.org/Graphics/SVG/1.1/DTD/svg11.dtd"><svg t="1595815094194" class="icon" viewBox="0 0 1024 1024" version="1.1" xmlns="http://www.w3.org/2000/svg" p-id="14878" xmlns:xlink="http://www.w3.org/1999/xlink" width="200" height="200"><defs><style type="text/css">html, * { user-select: text !important; }
</style></defs><path d="M336.907779 300.571651c15.372977 12.877364 35.93683 20.563853 53.905245 17.968415 20.563853 0 38.532267-10.281926 53.905245-23.15929 17.968415-15.372977 30.845779-35.93683 41.127705-59.09612 17.968415-43.623318 17.968415-97.528563 2.595438-143.847144-10.281926-30.845779-28.250341-59.09612-53.905245-77.064535C419.063365 5.2907 395.904075 0.199649 375.440047 2.795087c-12.877364 2.595438-25.654903 7.686489-38.532268 15.372977-23.059466 15.372977-38.532267 41.127705-48.814194 66.782609-12.877364 46.218756-15.372977 92.437512-2.595437 138.656268 10.281926 28.250341 25.754728 56.500682 51.409631 76.96471z m256.748684 2.595438c17.968415 15.372977 41.127705 25.654903 64.187171 25.654904 20.563853 2.595438 38.532267-2.595438 56.500683-12.877364s33.341392-25.654903 43.623318-43.623319c12.877364-20.563853 23.059466-41.127705 30.845779-64.187171 5.091051-17.968415 7.686489-38.532267 5.091051-59.09612-2.595438-28.250341-15.372977-53.905245-33.341392-77.064535-12.877364-15.372977-28.250341-30.845779-46.218756-38.532267-12.877364-5.091051-28.250341-10.281926-41.127706-7.686489-17.968415 2.595438-33.341392 12.877364-46.218756 23.15929-17.968415 15.372977-33.341392 33.341392-43.623318 53.905245-10.281926 17.968415-20.563853 38.532267-23.15929 61.591733-2.595438 25.654903-2.595438 51.309807 2.595437 74.469098 5.190875 23.259115 12.877364 46.318581 30.845779 64.286995z m-356.872684 210.629752c17.968415-15.372977 28.250341-35.93683 35.936829-56.500682 10.281926-33.341392 10.281926-66.782609 7.686489-100.124001 0-12.877364-5.091051-25.654903-10.281926-38.532267-12.877364-28.250341-35.93683-53.905245-64.187171-69.378047-23.15929-10.281926-46.218756-15.372977-66.782609-10.281926-25.654903 2.595438-46.218756 20.563853-61.591733 41.127705-20.563853 28.250341-30.845779 64.187171-35.93683 97.528563-2.595438 20.563853 0 41.127705 5.091051 61.591734 7.686489 30.845779 23.15929 59.09612 46.218756 79.560148 17.968415 15.372977 41.127705 23.15929 64.187171 23.15929 28.250341 0.099825 56.500682-7.686489 79.659973-28.150517z m739.500097-77.064535c-2.595438-20.563853-7.686489-38.532267-17.968415-56.500682-10.281926-20.563853-28.250341-41.127705-48.814194-51.309807-23.15929-12.877364-51.309807-15.372977-77.064535-12.877364-12.877364 2.595438-28.250341 5.091051-41.127705 12.877364-17.968415 10.281926-30.845779 28.250341-41.127705 48.814194-10.281926 25.654903-15.372977 53.905245-15.372977 82.155586 0 25.654903 0 53.905245 7.686488 79.560148 5.091051 17.968415 15.372977 38.532267 33.341392 48.814194 17.968415 15.372977 41.127705 20.563853 64.187171 23.15929 17.968415 2.595438 38.532267 2.595438 56.500683-2.595438 17.968415-5.091051 35.93683-15.372977 46.218756-30.845779 12.877364-15.372977 20.563853-35.93683 23.15929-53.905244 12.977189-30.845779 10.381751-59.09612 10.381751-87.346462z m0 0M904.410216 824.45077c-2.595438-35.93683-20.563853-71.87366-46.218756-100.124001-5.091051-5.091051-10.281926-10.281926-17.968415-15.372977-33.341392-28.250341-66.782609-59.09612-100.124-89.842074-33.341392-33.341392-64.187171-69.378046-92.437513-107.81049-20.563853-33.341392-48.814194-64.187171-87.346461-82.155586-23.059466-10.281926-51.309807-15.372977-77.064535-12.877364-46.218756 5.091051-87.346461 30.845779-115.596802 66.782609-7.686489 7.686489-12.877364 17.968415-17.968415 28.250341-20.563853 30.845779-46.218756 61.591733-74.469098 87.346462-15.372977 15.372977-30.845779 28.250341-46.218756 41.127705-7.686489 7.686489-17.968415 15.372977-25.654903 23.15929-30.845779 23.059466-61.591733 53.905245-79.560148 87.346461-12.877364 23.15929-20.563853 48.814194-23.159291 77.064535 0 23.059466 2.595438 46.218756 10.281927 66.782609 7.686489 23.059466 17.968415 46.218756 33.341392 64.187171 25.654903 30.845779 64.187171 51.409632 102.719438 53.905245 48.814194 2.595438 97.528563 0 143.847144-7.686489 20.563853-2.595438 41.127705-10.281926 64.187171-12.877364 46.218756-5.091051 92.437512-2.595438 136.060831 10.281926 35.93683 12.877364 74.469097 17.968415 113.001364 20.563853 38.532267 2.595438 79.560148-2.595438 115.596803-23.059466 25.654903-12.877364 46.218756-35.93683 59.09612-61.591733 20.464028-33.74069 30.745954-72.272958 25.654903-113.400663zM472.96861 929.765646H354.876194c-12.877364 0-25.654903 0-38.532267-2.595437-25.654903-5.091051-48.814194-20.563853-64.187171-43.623319-12.877364-15.372977-20.563853-33.341392-23.159291-53.905244-2.595438-20.563853-2.595438-41.127705 0-61.591734 5.091051-23.15929 17.968415-43.623318 33.341392-59.09612 12.877364-12.877364 30.845779-23.15929 48.814194-30.845779 7.686489-2.595438 15.372977-5.091051 23.059466-5.091051h69.378046v-97.628387h66.782609c2.595438 120.687853 2.595438 238.780269 2.595438 354.377071z m264.534997 0H575.688048c-17.968415-2.595438-33.341392-7.686489-46.218756-17.968415-15.372977-12.877364-23.15929-33.341392-23.15929-51.309807V685.794502h66.782609v161.815558c0 7.686489 2.595438 12.877364 7.686488 17.968415s12.877364 7.686489 20.563853 7.686489H670.720998V683.199064h66.782609v246.566582z m0 0" fill="#306CFF" p-id="14879"></path><path d="M331.716904 739.699747c-12.877364 5.091051-25.654903 15.372977-33.341392 30.845778-5.091051 12.877364-7.686489 25.654903-7.686489 38.532268 0 15.372977 5.091051 30.845779 12.877364 43.623318 10.281926 15.372977 28.250341 25.654903 46.218756 23.159291h53.905245v-138.756093h-59.09612c-2.595438-2.495613-7.686489 0-12.877364 2.595438z m0 0" fill="#306CFF" p-id="14880"></path></svg>