<?xml version="1.0" encoding="UTF-8" standalone="no"?>
<!DOCTYPE svg PUBLIC "-//W3C//DTD SVG 1.1//EN" "http://www.w3.org/Graphics/SVG/1.1/DTD/svg11.dtd">
<!-- 由 Microsoft Visio, SVG Export 生成 chong.svg Page-1 -->
<svg xmlns="http://www.w3.org/2000/svg" xmlns:xlink="http://www.w3.org/1999/xlink" xmlns:ev="http://www.w3.org/2001/xml-events"
		xmlns:v="http://schemas.microsoft.com/visio/2003/SVGExtensions/" width="1.81311in" height="1.93857in"
		viewBox="0 0 130.544 139.577" xml:space="preserve" color-interpolation-filters="sRGB" class="st3">
	<v:documentProperties v:langID="2052" v:metric="true" v:viewMarkup="false">
		<v:userDefs>
			<v:ud v:nameU="msvSubprocessMaster" v:prompt="" v:val="VT4(Rectangle)"/>
			<v:ud v:nameU="msvNoAutoConnect" v:val="VT0(1):26"/>
		</v:userDefs>
	</v:documentProperties>

	<style type="text/css">
	<![CDATA[
		.st1 {fill:#60bc44;stroke:none;stroke-linecap:butt;stroke-width:0.75095}
		.st2 {fill:#60bc44;stroke:none;stroke-linecap:butt;stroke-width:0.75092}
		.st3 {fill:none;fill-rule:evenodd;font-size:12px;overflow:visible;stroke-linecap:square;stroke-miterlimit:3}
	]]>
	</style>

	<g v:mID="0" v:index="1" v:groupContext="foregroundPage">
		<v:userDefs>
			<v:ud v:nameU="msvThemeOrder" v:val="VT0(0):26"/>
		</v:userDefs>
		<title>页-1</title>
		<v:pageProperties v:drawingScale="0.0393701" v:pageScale="0.0393701" v:drawingUnits="24" v:shadowOffsetX="9"
				v:shadowOffsetY="-9"/>
		<g id="group26-1" transform="translate(18.6773,-18.1628)" v:mID="26" v:groupContext="group">
			<title>工作表.26</title>
			<g id="shape27-2" v:mID="27" v:groupContext="shape" transform="translate(27.5723,-34.1373) rotate(-0.95639)">
				<title>工作表.27</title>
				<ellipse cx="18.5485" cy="120.954" rx="18.5485" ry="18.6236" class="st1"/>
			</g>
			<g id="shape28-4" v:mID="28" v:groupContext="shape">
				<title>工作表.28</title>
				<path d="M92.29 67.94 C92.21 63.81 89.21 58.78 85.53 56.83 L52.04 38.35 C48.43 36.33 42.58 36.48 39.05 38.58 L6.38
							 58.33 C2.85 60.43 0 65.61 0.08 69.74 L0.83 107.96 C0.9 112.09 3.9 117.12 7.58 119.08 L41.08 137.55 C44.68
							 139.58 50.54 139.43 54.07 137.32 L86.81 117.58 C90.34 115.47 93.19 110.29 93.11 106.16 L92.29 67.94
							 ZM48.66 112.17 C34.62 112.39 22.98 101.21 22.75 87.09 C22.53 73.05 33.72 61.41 47.76 61.18 C61.8 60.96
							 73.44 72.14 73.67 86.26 C73.89 100.3 62.7 111.94 48.66 112.17 Z" class="st2"/>
			</g>
		</g>
	</g>
</svg>
