<?xml version="1.0" encoding="UTF-8" standalone="no"?>
<!DOCTYPE svg PUBLIC "-//W3C//DTD SVG 1.1//EN" "http://www.w3.org/Graphics/SVG/1.1/DTD/svg11.dtd">
<!-- 由 Microsoft Visio, SVG Export 生成 chong.svg Page-1 -->
<svg xmlns="http://www.w3.org/2000/svg" xmlns:xlink="http://www.w3.org/1999/xlink" xmlns:ev="http://www.w3.org/2001/xml-events"
		xmlns:v="http://schemas.microsoft.com/visio/2003/SVGExtensions/" width="6.97951in" height="7.70122in"
		viewBox="0 0 502.525 554.488" xml:space="preserve" color-interpolation-filters="sRGB" class="st3">
	<v:documentProperties v:langID="2052" v:metric="true" v:viewMarkup="false">
		<v:userDefs>
			<v:ud v:nameU="msvSubprocessMaster" v:prompt="" v:val="VT4(Rectangle)"/>
			<v:ud v:nameU="msvNoAutoConnect" v:val="VT0(1):26"/>
		</v:userDefs>
	</v:documentProperties>

	<style type="text/css">
	<![CDATA[
		.st1 {fill:#60bc44;stroke:none;stroke-linecap:butt;stroke-width:1.53}
		.st2 {fill:#60bc44;stroke:none;stroke-linecap:butt;stroke-width:1.52995}
		.st3 {fill:none;fill-rule:evenodd;font-size:12px;overflow:visible;stroke-linecap:square;stroke-miterlimit:3}
	]]>
	</style>

	<g v:mID="0" v:index="1" v:groupContext="foregroundPage">
		<v:userDefs>
			<v:ud v:nameU="msvThemeOrder" v:val="VT0(0):26"/>
		</v:userDefs>
		<title>页-1</title>
		<v:pageProperties v:drawingScale="0.0393701" v:pageScale="0.0393701" v:drawingUnits="24" v:shadowOffsetX="9"
				v:shadowOffsetY="-9"/>
		<g id="shape72-1" v:mID="72" v:groupContext="shape" transform="translate(19.53,-18)">
			<title>工作表.72</title>
			<path d="M463.04 198.95 C463.04 178.21 448.44 152.61 430.24 142.45 L263.9 46.58 C245.91 36 216.5 36.21 198.72 46.58 L32.8
						 142.87 C14.81 153.03 0 178.85 0 199.59 L0.21 391.53 C0.21 412.27 14.81 437.88 33.01 448.04 L199.35 543.91
						 C217.34 554.49 246.76 554.28 264.53 543.91 L330.77 505.6 L283.37 423.28 C267.29 429.84 249.72 433.44 231.31
						 433.44 C155.33 433.23 93.96 371.43 94.17 295.24 C94.39 219.06 155.97 157.47 231.73 157.47 C262.63 157.47
						 290.99 167.84 314.06 185.2 C337.33 201.92 354.9 226.25 362.73 254.61 C366.75 267.52 368.87 281.49 368.87
						 295.67 C368.87 340.96 347.07 381.16 313.42 406.14 L360.61 488.25 L430.66 447.83 C448.65 437.67 463.46 411.85
						 463.46 391.11 L463.04 198.95 Z" class="st1"/>
		</g>
		<g id="shape73-3" v:mID="73" v:groupContext="shape" transform="translate(-199.813,374.053) rotate(-88.9461)">
			<title>工作表.73</title>
			<ellipse cx="105.176" cy="449.312" rx="105.176" ry="105.176" class="st2"/>
		</g>
	</g>
</svg>
