<svg xmlns="http://www.w3.org/2000/svg" xmlns:xlink="http://www.w3.org/1999/xlink" width="200" height="200" viewBox="0 0 200 200">
    <defs>
        <linearGradient id="prefix__a" x1="12.299%" x2="87.438%" y1="17.507%" y2="81.796%">
            <stop offset="0%" stop-color="#58CFFF"/>
            <stop offset="100%" stop-color="#08F"/>
        </linearGradient>
        <path id="prefix__b" d="M200 100c0 55.23-44.77 100-100 100S0 155.23 0 100 44.77 0 100 0s100 44.77 100 100z"/>
    </defs>
    <g fill="none" fill-rule="evenodd">
        <path fill="url(#prefix__a)" fill-rule="nonzero" d="M200 100c0 55.23-44.77 100-100 100S0 155.23 0 100 44.77 0 100 0s100 44.77 100 100z"/>
        <mask id="prefix__c" fill="#fff">
            <use xlink:href="#prefix__b"/>
        </mask>
        <use fill="#FFCB00" xlink:href="#prefix__b"/>
        <path fill="#FFA400" d="M120.102 114.084c14.663-5.85 23.56-12.007 26.69-18.472 3.13-6.464 5.866-9.697 8.208-9.697l15.312-3.298L263 178.545 260.5 315.5 83 140.5l37.102-26.416z" mask="url(#prefix__c)"/>
        <g fill="#FEFEFE" fill-rule="nonzero">
            <path d="M156.36 30.366c.622 1.765 1.768 3.258 2.374 5.058 2.178 6.493 1.204 12.435-2.78 17.93-2.24 3.16-5.433 5.518-9.112 6.73-.77.18-1.37.782-1.545 1.552-.613 2.358-2.816 3.948-5.247 3.785-2.418-.225-4.37-2.072-4.728-4.473-.41-2.426 1.352-5.674 5.23-5.794 5.437-.172 9.408-2.65 11.826-7.495 1.589-3.194 1.827-6.892.663-10.263-1.165-3.372-3.635-6.134-6.856-7.667-8.227-3.92-18.684 1.28-19.145 11.699-.303 6.761-2.842 12.043-8.145 16.251-1.906 1.504-3.282 3.672-5.37 5.106-4.45 3.073-9.415 4.656-14.703 5.396-.396.055-.799.072-1.191.144-.336.097-.667.212-.991.344 2.065 1.445 4.129 2.584 5.95 4.13 3.34 2.859 6.268 6.045 8.553 9.81.23.374.75.687.561 1.176-.255.626-.908.327-1.376.327-8.946.018-17.885.018-26.815 0H60.824c1.032-3.007 3.186-5.268 5.223-7.57 3.294-3.754 7.385-6.724 11.975-8.692-1.342-.382-2.388-.75-3.462-.967-5.395-1.083-10.323-3.368-15.14-5.9-7.133-3.748-13.474-8.603-19.516-13.922-8.086-7.133-16.582-13.743-26.457-18.35-3.607-1.722-7.395-3.034-11.293-3.913-1.032-.22-1.903-.76-1.803-1.896.11-1.225 1.056-1.61 2.22-1.483 1.162.128 2.28.21 3.203-.688.915-.53 1.848-.454 2.787-.069 2.828.372 5.43 1.507 8.038 2.543 6.696 2.646 13.23 5.698 20.084 7.962 4.346 1.445 8.688 2.409 13.271 2.557 5.203.179 10.048-.733 14.414-3.682.287-.183.597-.328.922-.43 2.901-.977 4.8-3.038 6.583-5.457 2.715-3.685 6.238-6.428 10.77-7.697.56-.155 1.452-.028 1.606-.998.145-.905-.567-1.088-1.094-1.504-2.33-1.844-3.155-6.314-1.72-9.232.77-1.569 1.538-3.12 3.097-4.129 1.27-.815 2.38-.78 3.571.066 3.276 2.326 4.676 7.67 2.918 11.258-.392.875-1.057 1.6-1.896 2.065-.632.33-.963 1.045-.805 1.74.117.837.795.465 1.215.582 5.79 1.62 9.871 5.464 13.013 10.323.984 1.528 2.453 1.7 3.75 2.34 5.227 2.577 10.044 5.656 13.657 10.346.307.176.093.764.544.771.616 0 .468-.523.53-.884.044-.225.132-.439.258-.63.987-6.737 4.817-11.489 10.79-14.3 6.438-3.021 12.873-2.526 18.977 1.27 2.081 1.297 3.561 3.193 5.306 4.824z" transform="translate(20 58)"/>
        </g>
    </g>
</svg>
