<?xml version="1.0" standalone="no"?><!DOCTYPE svg PUBLIC "-//W3C//DTD SVG 1.1//EN" "http://www.w3.org/Graphics/SVG/1.1/DTD/svg11.dtd"><svg t="1595821923958" class="icon" viewBox="0 0 1024 1024" version="1.1" xmlns="http://www.w3.org/2000/svg" p-id="20207" xmlns:xlink="http://www.w3.org/1999/xlink" width="200" height="200"><defs><style type="text/css">html, * { user-select: text !important; }
</style></defs><path d="M108.242649 260.152852v403.712929c0 20.976207 10.992556 40.205652 28.926988 50.701284l347.289492 201.570357a57.176352 57.176352 0 0 0 57.884091 0L889.617654 714.552007A58.531598 58.531598 0 0 0 918.5597 663.880839v-403.712928c0-20.991265-10.992556-40.205652-28.942046-50.701285L542.34322 7.89627a57.176352 57.176352 0 0 0-57.884091 0L137.169637 210.0539a58.290666 58.290666 0 0 0-28.926988 50.098952z" fill="#0F2B46" p-id="20208"></path><path d="M658.096345 1016.922601l-0.572215-87.383295 0.572215-80.396245-202.579262 50.098953" fill="#0F2B46" p-id="20209"></path><path d="M648.835493 842.156012l38.202898-9.908359-14.471023 8.161596c-8.688637 5.240287-14.471023 14.561373-14.471023 25.041947v16.323194l-9.260852-39.618378z" fill="#0F2B46" p-id="20210"></path><path d="M373.298784 278.222808a59.480271 59.480271 0 0 1 83.347671 0 60.474119 60.474119 0 0 1 0 87.398353 59.480271 59.480271 0 0 1-83.347671 0 60.474119 60.474119 0 0 1 0-87.398353zM633.762138 430.281486a59.480271 59.480271 0 0 1 83.347671 0 60.474119 60.474119 0 0 1 0 87.383295 59.480271 59.480271 0 0 1-83.347671 0 60.474119 60.474119 0 0 1 0-87.383295zM373.298784 591.073976a59.480271 59.480271 0 0 1 83.347671 0 60.474119 60.474119 0 0 1 0 87.383294 59.480271 59.480271 0 0 1-83.347671 0 60.474119 60.474119 0 0 1 0-87.383294z" fill="#FFFFFF" p-id="20211"></path><path d="M443.922194 354.538255l173.652276 100.785178 28.942045-16.308135-173.652275-101.372452zM629.139241 529.304844l-156.275001 90.876819-28.942046-16.88035 156.29006-90.304604z" fill="#FFFFFF" p-id="20212"></path></svg>