<?xml version="1.0" encoding="utf-8"?>
<!-- Generator: Adobe Illustrator 21.0.2, SVG Export Plug-In . SVG Version: 6.00 Build 0)  -->
<svg version="1.1" id="图层_1" xmlns="http://www.w3.org/2000/svg" xmlns:xlink="http://www.w3.org/1999/xlink" x="0px" y="0px"
	 viewBox="0 0 129 50" style="enable-background:new 0 0 129 50;" xml:space="preserve">
<style type="text/css">
	.st0{fill:#0082FF;}
	.st1{fill:#FF0000;}
	.st2{fill:#FFFFFF;}
</style>
<g>
	<path class="st0" d="M11.4,38.4c-2.1,0.6-4.8,0.9-7.1-0.9c-1.5-1.1-2.8-3.1-2.9-6.6c-0.1-9.1,8.5-17.2,13.3-18.8
		c2.4-0.8,4.3-0.8,5.7,0.3c1.2,0.9,1.9,1.9,2.2,3c0.4,1.2,0.3,2.3-0.3,3.7c-0.5,1.1-1.2,2.9-1.7,4.1c-0.1,0.3-0.4,0.6-0.9,0.2
		c-1-0.7-1.7-1.9-1.1-4s2.1-4.5,1.2-5.4c-1.4-1.4-8.3,2.3-12.3,8.4c-4,6-3.8,12.5-2.1,14.1c2.3,2.2,7.3-1,9.9-6.2
		c-1.4,0.3-2.7,0.5-3.7,0.6c-2.1,0.2-3.4-0.7-4.1-2c-0.2-0.4-0.1-0.7,0.4-0.7c3.3,0,6.6-1.1,9.1-1.1c2.1,0,3.3,0.9,3.9,2.2
		c0.2,0.5,0.1,0.8-0.4,0.7c-0.8-0.1-1.9,0-3,0.1C18.7,34,13.5,37.8,11.4,38.4z"/>
	<path class="st0" d="M33.8,12c0.6,1.2,0.6,3.3-1.3,6.5c-2.6,4.6-7.3,12.9-10.4,19.8c-0.2,0.4-0.3,0.5-0.7,0.1
		c-0.6-0.6-1.1-2.1-0.2-4.7c2.1-5.8,8.1-16.8,11.5-21.7C33.2,11.4,33.6,11.5,33.8,12z"/>
	<path class="st0" d="M36.5,13.6c-0.1-0.3,0-0.5,0.5-0.5c3.5,0.2,8-1.1,10.4-1.1c1.8,0,2.9,0.9,3.5,2.2c0.1,0.3,0,0.6-0.5,0.6
		c-3.2,0-6.2,0.8-8.8,1.2c-1.5,2.4-3.5,5.9-5.6,9.7c1.1-0.2,2.1-0.3,2.9-0.3c2.1-0.1,3.2,0.8,3.6,2c0.1,0.4,0,0.6-0.5,0.6
		c-2.1,0-5.4,0.6-7.8,1.2c-1.6,3.1-3.2,6.3-4.4,9.2c-0.2,0.4-0.4,0.4-0.7,0.2c-0.8-0.7-1.2-2-0.3-4.7c1.3-3.7,5.7-12.1,9.5-18.2
		C37.2,15.3,36.7,14.5,36.5,13.6z"/>
	<path class="st1" d="M52,13.6c-0.1-0.3,0-0.5,0.5-0.5c3.5,0.2,8-1.1,10.4-1.1c1.8,0,2.9,0.9,3.5,2.2c0.1,0.3,0,0.6-0.5,0.6
		c-3.2,0-6.2,0.8-8.8,1.2c-1.5,2.4-3.5,5.9-5.6,9.7c1.1-0.2,2.1-0.3,2.9-0.3c2.1-0.1,3.2,0.8,3.6,2c0.1,0.4,0,0.6-0.5,0.6
		c-2.1,0-5.4,0.6-7.8,1.2c-1.6,3.1-3.2,6.3-4.4,9.2c-0.2,0.4-0.4,0.4-0.7,0.2c-0.8-0.7-1.2-2-0.3-4.7c1.3-3.7,5.7-12.1,9.5-18.2
		C52.7,15.3,52.2,14.5,52,13.6z"/>
	<path class="st1" d="M80.3,29.3c-3.4,6.3-8.8,11.3-14.6,9.2c-3.5-1.3-4.9-4.5-4.9-8c0-9.1,8-16.9,12.8-18.6
		c2.5-0.9,4.6-0.4,5.8,0.9C84.7,15.1,83.5,23.5,80.3,29.3z M78.5,13.8c-2.1-0.8-7.5,2.1-11.5,8.3c-4.1,6.3-4.2,13.5-1.3,14.8
		c2.8,1.2,7.8-2.2,11.4-8.8C81.1,21,80.9,14.7,78.5,13.8z"/>
	<path class="st1" d="M100.2,12.1c0.5-0.5,0.9-0.3,1,0.3c0.3,1.2-0.2,3.4-2.8,5.9c-2,1.9-4.6,4.4-7.4,7.1c0.7,4.9,1.6,10.1,3.1,12.6
		c0.3,0.5,0.1,0.8-0.4,0.8c-1.7-0.1-3.4-1.2-4.4-5.4c-0.4-1.7-0.7-3.4-1-5.2c-3.4,3.5-6.8,7.2-9.1,10.4c-0.3,0.3-0.6,0.3-0.7-0.1
		c-0.4-0.9-0.4-2.4,0.9-4.5c1.1-1.8,4.5-5.5,8.2-9.5c-0.6-4.1-1.2-8.3-2.1-12c-0.1-0.4,0.1-0.7,0.6-0.6c1.1,0.2,2.5,1,3.3,3.8
		c0.3,1.2,0.7,3.4,1.1,6C94.2,17.9,97.9,14.2,100.2,12.1z"/>
</g>
<path class="st0" d="M116,40.3h-10.6V9.1H116c1.2,0,2.1,1,2.1,2.1v27C118.1,39.4,117.2,40.3,116,40.3z"/>
<g>
	<path class="st2" d="M111.5,12.6c0,0.6,0,1,0,1.1c0,0,0,0.1,0,0.2V14c0.1,0,0.2,0,0.3,0c0.5-0.6,0.9-1,1.2-1.3
		c0.3-0.3,0.6-0.4,0.8-0.4c0.1,0,0.2,0.1,0.2,0.2c0,0.1,0,0.1-0.1,0.2c-0.1,0.1-0.4,0.3-0.9,0.6c-0.2,0.2-0.4,0.4-0.6,0.6
		c0.8-0.1,1.2-0.1,1.5-0.1l0.3-0.1c0.1,0,0.1,0.1,0.2,0.1c0.1,0.1,0.2,0.2,0.2,0.3c0,0.1-0.1,0.2-0.2,0.2c-0.1,0-0.1,0-0.2,0
		c-0.1,0-0.1,0-0.2,0c-0.4,0-1.1,0-2,0.1h0c-0.3,0.3-0.6,0.7-0.9,1.2c0,0.2,0,0.4,0,0.8v0c0.3-0.1,0.6-0.2,1-0.3
		c0.4-0.1,0.8-0.3,1.3-0.4c0.2-0.1,0.3-0.1,0.3-0.1c0.1,0.1,0.2,0.2,0.2,0.3c0,0.1,0,0.2,0,0.2c-0.1,0-0.2,0.1-0.4,0.1
		c-0.5,0.1-1.3,0.4-2.1,0.7c-0.1,0.1-0.2,0.1-0.3,0.1c0,0.2,0,0.3,0,0.4c0,0.6,0.3,0.9,0.8,0.9c0.3,0,0.6,0,0.9-0.1
		c0.3,0,0.6-0.1,0.8-0.1c0.2,0,0.3-0.1,0.4-0.1c0,0,0,0,0.1,0c0.1,0,0.1,0,0.2,0.1c0,0.1,0,0.1,0,0.2c0,0.1-0.1,0.2-0.2,0.2
		c-0.7,0.2-1.4,0.3-2.2,0.3c-0.4,0-0.7-0.1-0.9-0.4c-0.2-0.3-0.3-0.6-0.3-1c0-0.3,0-0.7,0-1.2c-0.5,0.6-0.8,1.2-1.1,1.7
		c-0.1,0.1-0.1,0.2-0.2,0.3c0,0.1-0.1,0.1-0.2,0.1c-0.1,0-0.1,0-0.1-0.1c0-0.1-0.1-0.2-0.1-0.3c0,0,0-0.1,0-0.1c0,0,0.1-0.1,0.1-0.2
		c0.2-0.3,0.5-0.6,0.8-1.1c0.2-0.3,0.5-0.6,0.8-1.1l0-0.3c0-0.1,0-0.1,0-0.2c0-0.1,0.1-0.1,0.2-0.1c0.1,0,0.1,0,0.2,0.1l0.3-0.4
		c0,0,0.1-0.1,0.1-0.1c-0.7,0.1-1.2,0.1-1.7,0.2c-0.1,0-0.2,0.1-0.3,0.1c-0.1,0-0.2,0-0.3,0c-0.1,0-0.1-0.1-0.2-0.2
		c-0.1-0.1-0.1-0.2-0.1-0.3c0,0,0-0.1,0-0.1c0.7-0.1,1.3-0.2,1.8-0.2l0.3,0c0-0.2,0-0.7,0-1.3c-0.4,0-0.7,0.1-1,0.1
		c-0.1,0-0.1,0-0.2,0.1c-0.1,0-0.1,0-0.1,0c-0.1,0-0.1-0.1-0.2-0.2c-0.1-0.1-0.1-0.2-0.1-0.3c0,0,0-0.1,0-0.1c0.4-0.1,0.7-0.1,1-0.1
		c0.2,0,0.3,0,0.5,0c0-0.2,0-0.6,0-1c0-0.1,0-0.1,0-0.1c0,0,0-0.1,0-0.1c0,0,0-0.1,0-0.1c0,0,0.1,0,0.1,0s0.1,0,0.2,0.1
		c0.1,0.1,0.1,0.1,0.1,0.2c0,0.1,0,0.2,0,0.5c0,0.2,0,0.4,0,0.5c0.4,0,0.6,0,0.7,0l0.3-0.1c0,0,0.1,0,0.2,0.1
		c0.1,0.1,0.2,0.2,0.2,0.3c0,0.1-0.1,0.2-0.2,0.2c-0.1,0-0.1,0-0.2,0c-0.1,0-0.1,0-0.2,0C112.2,12.6,111.9,12.6,111.5,12.6z"/>
	<path class="st2" d="M113.7,21c0.2,0.1,0.3,0.3,0.4,0.5c0.1,0.2,0.1,0.4,0.1,0.8c0,1.3,0,3.1,0,5.2c0,0.1,0,0.3,0,0.6
		c0,0.2,0,0.3-0.1,0.4c0,0.1-0.1,0.1-0.1,0.2c-0.1,0-0.1,0.1-0.2,0.1c0,0-0.1-0.1-0.1-0.2c-0.1-0.1-0.1-0.2-0.1-0.3c0,0,0,0,0-0.1
		c0,0,0-0.1,0-0.1c0-0.1,0-0.8,0-2c0-1.2,0-2.5,0-3.8c0-0.6-0.2-0.9-0.7-0.9s-1,0.1-1.6,0.1c-0.6,0.1-1,0.2-1.2,0.2l-0.5,0.1
		c-0.1,0-0.1,0-0.2,0c-0.1,0-0.1,0-0.1-0.1c-0.1-0.1-0.1-0.2-0.1-0.3c0-0.1,0.1-0.2,0.3-0.2c0.5-0.1,1-0.2,1.7-0.3
		c0.6-0.1,1.2-0.1,1.7-0.1C113.3,20.8,113.5,20.8,113.7,21z M109.4,22.9C109.5,22.9,109.5,23,109.4,22.9c0.1,0,0.1,0,0.2,0
		c0,0,0.4,0,1.2-0.1c0.7-0.1,1.2-0.1,1.3-0.2c0.1,0,0.2-0.1,0.3-0.1c0.1,0,0.1,0,0.1,0c0,0,0.1,0.1,0.1,0.1c0,0.1,0.1,0.1,0.1,0.2
		c0,0.1,0,0.1-0.1,0.2c0,0.1-0.1,0.1-0.1,0.1c0,0-0.1,0-0.1,0c0,0-0.1,0-0.1,0c0,0-0.1,0-0.1,0c-0.2,0-0.6,0-1.1,0.1
		s-0.9,0.1-1.1,0.2c-0.3,0.1-0.4,0.1-0.5,0.1s-0.1,0-0.1-0.1c0,0-0.1-0.1-0.1-0.1c0,0,0-0.1,0-0.2C109.3,23.1,109.3,23,109.4,22.9
		C109.4,22.9,109.4,22.9,109.4,22.9z M111.7,24.3c0.1,0,0.2,0,0.3,0.1c0.1,0,0.2,0.1,0.3,0.2c0.1,0.1,0.1,0.3,0.1,0.4
		c0,0.3,0,0.8-0.1,1.2c0,0.1,0,0.2,0,0.3c0,0,0,0,0.1,0c0.1,0.1,0.1,0.2,0.1,0.2c0,0.2-0.1,0.2-0.2,0.2c0,0-0.1,0-0.1,0
		c-0.1,0-0.1,0-0.1,0c-0.1,0-0.3,0-0.7,0.1c-0.4,0-0.7,0.1-1.2,0.2c0,0,0,0.1-0.1,0.1c0,0-0.1,0.1-0.1,0.1c-0.1,0-0.1,0-0.2-0.1
		c0-0.1-0.1-0.1-0.1-0.1c-0.1-0.6-0.1-1.4-0.1-2.4c0,0,0-0.1,0-0.1c0,0,0-0.1,0-0.1c0,0,0-0.1,0-0.1c0,0,0.1,0,0.1,0
		c0.1,0,0.1,0,0.2,0.1c0,0,0,0,0,0C110.6,24.4,111.2,24.3,111.7,24.3z M110.9,26.7c0.4-0.1,0.7-0.1,0.9-0.1c0,0,0,0,0,0l0-0.1
		c0.1-0.5,0.1-1,0.1-1.5c0-0.1-0.1-0.2-0.3-0.2c-0.3,0-0.6,0-1,0.1c-0.3,0.1-0.6,0.1-0.7,0.2l-0.1,0c0,0.6,0,1,0,1.3
		c0,0.2,0,0.3,0,0.4C110.3,26.7,110.6,26.7,110.9,26.7z"/>
	<path class="st2" d="M111.3,32.5c0,0.1,0,0.1-0.1,0.1c0,0-0.1,0-0.2,0c-0.1,0-0.2,0-0.2,0c-0.1,0-0.3,0-0.4,0l0,1.1c0,0,0,0,0,0
		c0.1,0.1,0.2,0.2,0.2,0.2c0.1,0.1,0.2,0.1,0.2,0.2c0.1,0.1,0.1,0.1,0.2,0.1c0,0,0.1,0,0.1,0c0,0,0.1,0.1,0.1,0.1c0,0,0,0.1,0,0.2
		c0,0.1,0,0.1-0.1,0.2c0,0.1-0.1,0.1-0.1,0.1c0,0-0.1,0-0.2-0.1c-0.1-0.1-0.2-0.2-0.3-0.3c-0.1-0.1-0.1-0.1-0.2-0.2l0,0.8
		c0,0.8,0,1.5,0,2.2c0,0.1,0,0.3,0,0.5l0,0.1c0,0.1,0,0.1,0,0.1c0,0.1,0,0.1-0.1,0.2c-0.1,0-0.1,0.1-0.1,0.1c-0.2,0-0.4-0.2-0.4-0.5
		v-0.5c0-0.5,0-1.2,0-1.9v-1.1c-0.1,0.2-0.2,0.5-0.3,0.9c-0.1,0.4-0.2,0.8-0.3,1.1c0,0.1,0,0.1,0,0.2c-0.1,0.1-0.1,0.1-0.2,0.1
		c-0.1,0-0.1-0.1-0.2-0.2c-0.1-0.1-0.1-0.2-0.1-0.3c0,0,0-0.1,0-0.1l0.1-0.2l0.2-0.5c0.1-0.2,0.2-0.5,0.4-0.9
		c0.2-0.4,0.3-0.7,0.4-0.9l0,0v-0.7c-0.2,0-0.4,0.1-0.6,0.1c-0.1,0-0.1,0.1-0.2,0.1c0,0-0.1-0.1-0.1-0.2c0-0.1-0.1-0.2-0.1-0.3
		c0-0.1,0-0.1,0-0.1c0.3-0.1,0.6-0.1,0.9-0.2h0v-0.3c0-0.5,0-0.7,0-0.9c0-0.1,0-0.2,0-0.3c0-0.1,0-0.1,0-0.2c0-0.1,0-0.1,0.1-0.2
		c0.1-0.1,0.2-0.1,0.2-0.1c0,0,0.1,0,0.2,0.1c0.1,0.1,0.1,0.1,0.1,0.2c0,0,0,0.1,0,0.3c0,0.1,0,0.3,0,0.5c0,0.2,0,0.5,0,0.8v0.2
		c0.1,0,0.3,0,0.4,0c0.1,0,0.2,0,0.3,0c0.1,0,0.2,0.1,0.2,0.1C111.3,32.3,111.3,32.4,111.3,32.5z M112.4,30.9
		C112.4,30.9,112.4,30.9,112.4,30.9c0.2-0.1,0.4-0.2,0.5-0.2c0.2-0.1,0.3-0.1,0.4-0.1c0.1,0,0.2,0,0.3,0.1c0.1,0.1,0.2,0.1,0.2,0.2
		c0.1,0.1,0.1,0.2,0.1,0.3c0,0.4-0.1,1.5-0.2,3.4c-0.1,1.4-0.1,2.3-0.1,2.7c0,0,0,0.1,0,0.1c0,0,0,0,0.1,0c0.2,0,0.3,0,0.4-0.1
		c0.1-0.1,0.2-0.1,0.3-0.2c0.1,0,0.2,0.1,0.2,0.2c0,0.1,0,0.2-0.1,0.3c-0.2,0.1-0.5,0.2-0.8,0.2c-0.2,0-0.3-0.1-0.4-0.2
		c-0.1-0.1-0.1-0.3-0.1-0.4c0-0.6,0-1.5,0.1-2.9c0.1-1.9,0.2-3,0.2-3.3c0-0.1,0-0.1,0-0.1c0,0-0.1-0.1-0.1-0.1c-0.1,0-0.2,0-0.4,0.1
		c-0.2,0.1-0.3,0.2-0.5,0.3c-0.1,0-0.1,0.1-0.1,0.1c0,0.3-0.1,0.8-0.1,1.5c-0.1,1-0.1,2.4-0.1,4c0,0.1,0,0.2,0,0.4
		c0,0.2,0,0.3,0.1,0.4c0,0.1,0,0.1,0,0.2c0,0.1,0,0.1,0,0.2c-0.1,0-0.1,0.1-0.1,0.1c-0.1,0-0.2-0.1-0.3-0.2
		c-0.1-0.1-0.1-0.4-0.1-0.9c0-1.1,0.1-3,0.3-5.6c0-0.2,0-0.3,0-0.4c0-0.1,0-0.2,0-0.3c0-0.1,0-0.1,0.1-0.1c0,0,0.1,0,0.2,0
		c0.1,0,0.1,0,0.2,0.1C112.3,30.8,112.4,30.8,112.4,30.9C112.4,30.9,112.4,30.9,112.4,30.9z"/>
</g>
<g>
</g>
<g>
</g>
<g>
</g>
<g>
</g>
<g>
</g>
<g>
</g>
<g>
</g>
<g>
</g>
<g>
</g>
<g>
</g>
<g>
</g>
<g>
</g>
</svg>
