<?xml version="1.0" standalone="no"?><!DOCTYPE svg PUBLIC "-//W3C//DTD SVG 1.1//EN" "http://www.w3.org/Graphics/SVG/1.1/DTD/svg11.dtd"><svg t="1595907067483" class="icon" viewBox="0 0 1024 1024" version="1.1" xmlns="http://www.w3.org/2000/svg" p-id="19870" xmlns:xlink="http://www.w3.org/1999/xlink" width="200" height="200"><defs><style type="text/css">html, * { user-select: text !important; }
</style></defs><path d="M281.88037084 512c0-25.11474609 4.28466822-49.20776342 11.86523438-71.78466797L160.65722631 340.67919947A379.95117162 379.95117162 0 0 0 120.11767553 512c0 61.56738256 14.56787135 119.64111328 40.47363306 171.1889651l133.02246119-99.70092799A224.45068359 224.45068359 0 0 1 281.88037084 512" fill="#FBBC05" p-id="19871"></path><path d="M515.62548803 283.49536133c55.70068385 0 106.02905299 19.3139651 145.57983424 50.95459009L776.26513647 221.96093725C706.1613767 162.20629908 616.28222631 125.29223633 515.62548803 125.29223633c-156.29150365 0-290.63232447 87.50610352-354.96826172 215.38696314l133.15429738 99.53613256c30.65185547-91.16455078 118.05908203-156.7199707 221.81396434-156.7199707" fill="#EA4335" p-id="19872"></path><path d="M515.62548803 740.50463867c-103.78784154 0-191.19506811-65.55541992-221.87988281-156.7199707l-133.08837891 99.53613256c64.30297877 127.88085963 198.64379883 215.38696314 354.96826172 215.38696314 96.43798853 0 188.52539037-33.51928711 257.67333984-96.37207006l-126.36474609-95.64697291c-35.62866236 21.98364283-80.51879908 33.81591797-131.34155223 33.81591797" fill="#34A853" p-id="19873"></path><path d="M893.13769506 512c0-22.84057617-3.62548803-47.4609375-8.99780273-70.30151367H515.59252955V591.1015625h212.12402293c-10.57983398 50.9545901-39.4519043 90.10986353-80.74951146 115.5871582l126.33178685 95.64697291c72.60864283-65.98388697 119.83886719-164.26757838 119.83886719-290.33569361" fill="#4285F4" p-id="19874"></path></svg>