<?xml version="1.0" standalone="no"?><!DOCTYPE svg PUBLIC "-//W3C//DTD SVG 1.1//EN" "http://www.w3.org/Graphics/SVG/1.1/DTD/svg11.dtd"><svg t="1595923752111" class="icon" viewBox="0 0 1024 1024" version="1.1" xmlns="http://www.w3.org/2000/svg" p-id="33260" xmlns:xlink="http://www.w3.org/1999/xlink" width="200" height="200"><defs><style type="text/css">html, * { user-select: text !important; }
</style></defs><path d="M127.96 868.07V122.61c0-25.05 14.25-48.37 37.14-59.17l435.78 431.9-435.78 431.9c-22.89-11.23-37.14-34.12-37.14-59.17" fill="#00D8FF" p-id="33261"></path><path d="M739.09 632.25L262.71 904.78l375.75-372.3 100.63 99.77" fill="#FF003C" p-id="33262"></path><path d="M887.23 443.08c16.41 12.53 25.91 31.53 25.91 52.26 0.43 20.3-9.07 39.3-25.05 51.83L786.6 605.04l-110.57-109.7 110.57-109.7 100.63 57.44" fill="#FFCA00" p-id="33263"></path><path d="M262.71 85.91l476.38 272.53-100.63 99.76L262.71 85.91z m0 0" fill="#00F765" p-id="33264"></path></svg>