<svg id="图层_1" data-name="图层 1" xmlns="http://www.w3.org/2000/svg" viewBox="0 0 308.4 199.71"><defs><style>.cls-1{fill:#0523a5;}</style></defs><title>未标题-6</title><path class="cls-1" d="M128.51,183.11a16.64,16.64,0,1,0-8.3,14.36v2.24h8.3v-8.29h0v-8.29h0Zm-16.6,8.3a8.3,8.3,0,1,1,8.3-8.3A8.31,8.31,0,0,1,111.91,191.41Z"/><path class="cls-1" d="M95.27,191.83a18.8,18.8,0,0,1-1.15-14.78,16.52,16.52,0,0,0-2-3.63h0a16.94,16.94,0,0,0-2.93-3.11h0a16.17,16.17,0,0,0-3.29-2.11l-.1-.05-.64-.29-.13-.06-.67-.26h0a17.28,17.28,0,0,0-2.16-.62l-.25,0-.55-.1-.37-.06c-.17,0-.34-.05-.51-.06l-.47-.05-.44,0c-.26,0-.53,0-.8,0H78.7c-.36,0-.7,0-1,0H77.5a16.44,16.44,0,0,0-7.08,2.17V158.21h0a8.29,8.29,0,0,0-8.29-8.29h0v49.79h8.3V183.56a8.89,8.89,0,0,1,8.28-8.75h0a8.31,8.31,0,0,1,8.3,8.3v8.3h0v8.3h8.3V196.8l0-.05Z"/><path class="cls-1" d="M198.19,183.11a16.64,16.64,0,1,0-8.3,14.36v2.24h8.3v-8.29h0v-8.29h0Zm-16.6,8.3a8.3,8.3,0,1,1,8.3-8.3A8.32,8.32,0,0,1,181.59,191.41Z"/><path class="cls-1" d="M165,191.92A18.72,18.72,0,0,1,163.83,177a16.63,16.63,0,0,0-11.39-10l-.12,0c-.25-.07-.51-.12-.77-.17l-.28,0-.64-.1-.32,0-.66-.06-.3,0-.95,0h0c-.35,0-.69,0-1,0l-.24,0c-.29,0-.58.05-.86.09l-.15,0a16.37,16.37,0,0,0-6,2.06v-2.22h-8.29v8.29h0v8.3h0v16.6h8.29v-8.3h0v-8.3a8.32,8.32,0,0,1,8.3-8.3c.2,0,.4,0,.59,0l.26,0h0a8.3,8.3,0,0,1,7.36,7.24,8.57,8.57,0,0,1,.07,1v8.3h0v8.3H165V196.8h0Z"/><path class="cls-1" d="M238,174.81h0a8.3,8.3,0,0,1,8.3,8.3v16.6a0,0,0,0,1,0,0h0a8.3,8.3,0,0,1-8.3-8.3v-16.6A0,0,0,0,1,238,174.81Z"/><rect class="cls-1" x="237.84" y="162.39" width="8.3" height="8.3" rx="4.15" transform="translate(408.53 -75.45) rotate(90)"/><path class="cls-1" d="M231.29,172.43a8.28,8.28,0,0,0-2.24-2.29c-7-4.74-14-4.44-19.26-1.39V158.18a8.31,8.31,0,0,0-8.3-8.3h0v49.83h8.3v-2.24a16.54,16.54,0,0,0,8.3,2.24C230.67,199.71,240,185.7,231.29,172.43Zm-7.11,16.71-.07.07c-8.82,6.73-18.85-3.31-12.12-12.13a.23.23,0,0,1,.07-.07C220.88,170.28,230.91,180.32,224.18,189.14Z"/><path class="cls-1" d="M55.81,46.59H33a12,12,0,0,0-10.58,6.34L0,94.85H17.81v44.94H45.87V73.94H40.7Z"/><path class="cls-1" d="M115.21,73V58.59a12,12,0,0,0-12-12H86.91V78.73L57.35,81.22V94.7l29.56-2.44V115.1a24.67,24.67,0,0,0,24.66,24.67H155V127.09H127.54a12.33,12.33,0,0,1-12.33-12.33V89.92l36.22-3.11V73.28l-36.22,3.11Z"/><path class="cls-1" d="M206.56,62.69l-10-35.93a10.88,10.88,0,0,0-10.49-8H170l12.24,43.89Z"/><path class="cls-1" d="M308.4,18.8H292.67a10.89,10.89,0,0,0-10.47,7.89l-10.35,36h23.93Z"/><path class="cls-1" d="M127.56,12.76h0A12.76,12.76,0,0,0,114.8,0H99.09V12.76H56.41A12.76,12.76,0,0,0,43.65,0H27.94V12.76H12.77A12.75,12.75,0,0,0,0,25.51v.18H27.94V41.3H56.41V25.69H99.09V41.3h28.47V25.69h14.67A12.75,12.75,0,0,0,155,12.94v-.18Z"/><path class="cls-1" d="M308.38,140a81.62,81.62,0,0,1-81.53-81.53V.33h12.67a12,12,0,0,1,12,12V58.49c0,31.36,25.51,60,56.86,60Z"/><path class="cls-1" d="M170,140V118.44c31.35,0,56.86-28.59,56.86-59.95V.33h12.67a12,12,0,0,1,12,12V58.49A81.62,81.62,0,0,1,170,140Z"/><rect class="cls-1" y="179.19" width="35.72" height="3"/><rect class="cls-1" x="272.68" y="179.19" width="35.72" height="3"/></svg>