<?xml version="1.0" standalone="no"?><!DOCTYPE svg PUBLIC "-//W3C//DTD SVG 1.1//EN" "http://www.w3.org/Graphics/SVG/1.1/DTD/svg11.dtd"><svg t="1595821072896" class="icon" viewBox="0 0 1024 1024" version="1.1" xmlns="http://www.w3.org/2000/svg" p-id="16625" xmlns:xlink="http://www.w3.org/1999/xlink" width="200" height="200"><defs><style type="text/css">html, * { user-select: text !important; }
</style></defs><path d="M83.6352 202.5472L275.7888 40.96h89.6256L153.088 224.3328s-54.1952-6.4768-69.4528-21.7856z" fill="#FAD97F" p-id="16626"></path><path d="M153.088 238.9248c-0.5632 0-1.152 0-1.6896-0.1024-9.9072-1.152-60.1856-7.9616-78.1056-25.9072a14.6688 14.6688 0 0 1 0.9472-21.632l192.128-161.5872a14.6944 14.6944 0 0 1 9.4464-3.4304h89.6256c6.1184 0 11.5968 3.7888 13.696 9.5232a14.7712 14.7712 0 0 1-4.1728 16.2816L162.7136 235.392a14.848 14.848 0 0 1-9.6256 3.5328zM109.4912 199.9616c10.9312 3.6864 25.6 6.9632 39.04 8.9856l177.536-153.2672h-44.9024L109.4912 199.9616z" p-id="16627"></path><path d="M83.6352 205.44s59.1104 33.5616 96.5376 0V939.52l-96.5376-2.9696V205.44" fill="#F7D172" p-id="16628"></path><path d="M180.1728 954.1632h-0.4864l-96.5376-2.9696a14.6688 14.6688 0 0 1-14.1568-14.6432V205.44a14.592 14.592 0 0 1 21.888-12.7488c0.1792 0.1024 23.424 12.9792 47.6672 12.9792 11.648 0.512 23.04-3.456 31.8464-11.136a14.6688 14.6688 0 0 1 24.3968 10.9056V939.52a14.592 14.592 0 0 1-14.6176 14.6432z m-81.92-31.7696l67.2512 2.0224V230.656c-21.0688 7.1936-49.024 3.2512-67.2512-2.9952v694.7328z" p-id="16629"></path><path d="M365.4144 51.2512V672.512l-181.2736 167.9872 2.4576-632.1152 178.816-157.1328z" fill="#FAD97F" p-id="16630"></path><path d="M184.1408 855.0912a14.4896 14.4896 0 0 1-14.6176-14.3872v-0.2304l2.432-632.1408c0-4.2496 1.8176-8.2176 4.9664-10.9568l178.8672-157.1328A14.6688 14.6688 0 0 1 370.432 25.6a14.6688 14.6688 0 1 1 9.6768 25.6512V672.512a14.8992 14.8992 0 0 1-4.7104 10.7776l-181.3248 167.9872a14.4896 14.4896 0 0 1-9.9328 3.8144z m17.024-640.0768L198.912 806.912l151.8592-140.7744V83.5584L201.1648 215.0144z" p-id="16631"></path><path d="M184.1408 840.4736v98.9696h638.7456s-19.968-67.0208 1.0752-98.9696c18.048-27.5712 155.008-163.4048 155.008-163.4048l-613.5552-4.5568-181.2736 167.9616z" fill="#F2385A" p-id="16632"></path><path d="M822.8864 954.1632H184.1408a14.6176 14.6176 0 0 1-14.6176-14.6432v-98.9952c0-4.0192 1.6896-7.936 4.6592-10.752l181.3248-167.9872a14.4128 14.4128 0 0 1 9.9584-3.8656h0.1024l613.5296 4.5824a14.592 14.592 0 0 1 10.1632 24.9856c-37.8624 37.4784-138.9568 139.4432-153.088 161.024-14.1056 21.4784-3.8912 71.0912 0.768 86.8352a14.592 14.592 0 0 1-14.0544 18.816zM198.784 924.9024h605.4912c-4.9408-24.4224-9.7792-66.2272 7.4496-92.4416 14.08-21.4784 90.9056-99.6608 132.1728-140.9536l-572.7488-4.2496-172.3648 159.6672v77.9776z" p-id="16633"></path><path d="M826.1376 939.52l157.568-174.8224-4.7616-87.5776-163.7376 169.9072c0.0256 0-9.2928 75.3664 10.9312 92.4928z" fill="#EF5476" p-id="16634"></path><path d="M826.1376 954.1632a14.592 14.592 0 0 1-9.472-3.5072c-24.2688-20.6848-18.3296-85.9392-15.9232-105.472a14.848 14.848 0 0 1 3.9424-8.3968l163.7376-169.9328a14.7456 14.7456 0 0 1 20.7616-0.4352 14.8992 14.8992 0 0 1 4.48 9.8048L998.4 763.8272a14.8992 14.8992 0 0 1-3.7376 10.5728l-157.568 174.8224a14.5152 14.5152 0 0 1-10.9568 4.9408z m3.0976-100.5568c-2.3296 22.4-1.8688 45.2096 0.7424 59.8528l138.8544-154.0864-2.6624-47.9488-136.9344 142.1824z" p-id="16635"></path><path d="M193.9712 840.4736h627.4816" fill="#EF5476" p-id="16636"></path><path d="M821.4528 855.0912H193.9712a14.6176 14.6176 0 1 1 0-29.2352h627.4816a14.6432 14.6432 0 0 1 0 29.2352z" p-id="16637"></path><path d="M886.3232 709.9136l-172.1856-172.1088c-1.0752-1.2032-2.56-1.664-3.7632-2.5088a235.008 235.008 0 0 0-188.5184-375.936c-129.9968-0.1024-235.4176 105.1904-235.5456 235.1872a235.4176 235.4176 0 0 0 380.5696 185.4208c0.768 0.9472 1.2288 2.048 1.9712 2.9696l172.3136 172.3136a29.1584 29.1584 0 0 0 41.0112 0l4.1472-4.352a28.9792 28.9792 0 0 0 0.0256-40.9856h-0.0256z" fill="#9DE8F7" p-id="16638"></path><path d="M861.6704 778.3424a43.008 43.008 0 0 1-30.7968-12.8256l-165.9392-165.9136a246.6048 246.6048 0 0 1-143.0272 45.1584c-137.8816 0-250.0608-112.1792-250.0608-250.0608 0-137.8816 112.1792-250.0096 250.0608-250.0096 138.0352 0.1792 249.8816 112 250.0608 250.0096a247.9104 247.9104 0 0 1-41.9584 138.24l166.8096 166.656a43.7504 43.7504 0 0 1 0 61.6192l-3.9168 4.0704a44.1856 44.1856 0 0 1-31.232 13.056z m-194.8672-213.0944c4.2496 0 8.4992 1.7664 11.3664 5.4528l2.0992 3.072 171.2128 171.1104a14.8224 14.8224 0 0 0 20.2752 0l3.9424-4.096a14.3616 14.3616 0 0 0 0.4608-20.2752l-0.2816-0.2816-172.1344-172.032a16.0768 16.0768 0 0 1-7.2192-9.9584c-0.6656-3.968-0.4096-8.4224 1.9968-11.648a219.5456 219.5456 0 0 0 44.032-131.84 220.928 220.928 0 0 0-220.7744-220.7232 220.928 220.928 0 0 0-220.8 220.7232 221.0816 221.0816 0 0 0 220.8 220.8 218.2144 218.2144 0 0 0 135.9616-47.104 14.592 14.592 0 0 1 9.0624-3.2z" p-id="16639"></path></svg>