<?xml version="1.0" standalone="no"?><!DOCTYPE svg PUBLIC "-//W3C//DTD SVG 1.1//EN" "http://www.w3.org/Graphics/SVG/1.1/DTD/svg11.dtd"><svg t="1595909695239" class="icon" viewBox="0 0 1024 1024" version="1.1" xmlns="http://www.w3.org/2000/svg" p-id="23144" xmlns:xlink="http://www.w3.org/1999/xlink" width="200" height="200"><defs><style type="text/css">html, * { user-select: text !important; }
</style></defs><path d="M157.582222 0h708.835556c86.471111 0 157.013333 69.973333 157.582222 156.444444v711.111112c-0.568889 86.471111-71.111111 156.444444-157.582222 156.444444H157.582222C71.111111 1024 0.568889 954.026667 0 867.555556v-711.111112C0.568889 69.973333 71.111111 0 157.582222 0z" fill="#42BD56" p-id="23145"></path><path d="M522.808889 874.382222c-120.604444 2.844444-241.777778-6.257778-360.675556-27.306666-58.026667-10.808889-92.16-50.062222-90.453333-104.675556 0-15.36 5.688889-23.324444 21.617778-23.324444h36.977778c14.791111 0 25.031111 3.982222 30.151111 19.911111 6.257778 22.186667 23.893333 32.426667 45.511111 35.271111 54.613333 8.533333 109.795556 15.36 164.977778 18.773333 87.04 5.688889 174.648889 5.688889 262.257777 0 63.146667-4.551111 126.293333-10.24 188.871111-19.911111 16.497778-2.844444 30.151111-10.24 33.564445-26.737778 5.688889-25.031111 22.186667-27.875556 43.804444-27.875555 55.751111 0.568889 57.457778 2.275556 43.235556 55.182222-9.102222 32.995556-27.306667 56.888889-62.008889 67.128889-54.044444 15.928889-110.364444 21.048889-166.115556 26.168889-63.146667 7.395556-127.431111 9.671111-191.715555 7.395555z m1.137778-724.195555c99.555556-6.257778 208.782222 5.688889 317.44 23.324444 64.284444 10.24 95.004444 26.168889 108.657777 102.4 3.413333 19.911111-4.551111 28.444444-23.893333 27.875556-11.946667-0.568889-25.031111-2.275556-37.546667-2.275556-13.653333 1.706667-26.737778-7.395556-30.151111-20.48-7.395556-18.773333-25.031111-31.857778-44.942222-32.995555-128.568889-17.066667-257.706667-27.875556-387.413333-21.048889-74.524444 3.982222-149.617778 14.222222-224.142222 21.617777-17.635556 0.568889-32.995556 11.946667-39.253334 28.444445-6.826667 21.617778-21.048889 26.737778-40.96 25.031111-9.102222-1.137778-17.635556-1.137778-26.737778-1.137778-17.066667 0.568889-23.324444-7.395556-23.324444-24.462222-1.137778-45.511111 29.582222-85.333333 74.524444-95.573333 120.604444-26.737778 243.484444-34.133333 377.742223-30.72zM426.097778 513.706667v106.951111c-0.568889 12.515556-2.275556 25.031111-5.12 36.977778-3.413333 15.36-27.306667 31.857778 6.257778 43.235555 7.964444 2.844444 5.688889 19.342222 2.844444 30.151111-3.413333 9.102222-12.515556 14.222222-21.617778 11.946667-25.031111-1.706667-52.906667 1.706667-68.835555-26.168889-4.551111-7.964444-12.515556-9.102222-21.048889-9.102222-9.102222 0-17.635556-0.568889-26.737778-1.706667-82.488889-11.946667-92.16-23.324444-92.16-105.813333V391.395556c0-36.977778 14.222222-55.182222 49.493333-66.56 42.666667-13.653333 89.315556-13.084444 131.413334 2.275555 30.151111 10.24 43.235556 29.582222 44.373333 65.422222 1.706667 40.96 1.137778 81.351111 1.137778 121.173334zM335.644444 513.137778V398.222222c0-15.928889-2.844444-28.444444-22.755555-28.444444-18.773333 0-25.031111 9.102222-25.031111 26.737778v229.831111c0 17.066667 5.12 31.288889 24.462222 31.288889s22.755556-15.928889 22.755556-31.857778c0.568889-37.546667 0-75.093333 0.568888-112.64z m373.76-64.853334c11.377778-35.84 21.048889-63.715556 28.444445-91.591111 5.688889-21.617778 16.497778-30.151111 39.253333-30.151111 68.835556 0 59.733333 3.982222 40.96 55.751111-16.497778 45.511111-30.151111 91.591111-49.493333 135.395556-19.342222 43.804444-13.084444 91.022222-15.36 136.533333-0.568889 15.36 6.257778 35.271111-13.084445 42.097778-19.911111 7.395556-43.804444 2.844444-65.422222-2.275556-5.12-1.137778-6.826667-7.964444-7.395555-13.084444v-5.12c16.497778-113.208889-40.391111-209.351111-72.248889-311.182222-10.808889-33.564444-9.102222-36.977778 25.6-37.546667 7.964444 0 15.928889 0.568889 23.893333 0 19.342222-2.275556 29.582222 6.257778 34.702222 25.031111 7.964444 29.582222 18.204444 58.595556 30.151111 96.142222z m243.484445 66.56v152.462223c0 20.48-5.688889 30.72-29.013333 31.288889-58.595556 1.137778-58.595556 1.706667-58.595556-57.457778 0-93.297778 0.568889-187.164444 0-281.031111 0-25.6 9.102222-34.133333 34.133333-33.564445 52.906667 1.137778 52.906667 0 52.906667 51.768889l0.568889 136.533333z m-395.946667 0.568889c0 52.337778-0.568889 105.244444 0 157.582223 0 17.635556-5.688889 23.893333-22.755555 25.031111-65.422222 4.551111-65.422222 5.12-65.422223-60.302223V365.226667c0-35.84 2.275556-38.115556 37.546667-38.684445 5.12 0.568889 10.808889 0.568889 15.928889 0 25.6-2.844444 34.702222 7.964444 34.133333 33.564445-1.706667 51.768889-0.568889 103.537778-0.568889 154.737777l1.137778 0.568889z m-402.204444 51.2v104.106667c0 19.342222-7.964444 26.737778-26.737778 27.306667-55.751111 2.275556-55.751111 2.844444-55.751111-54.044445 0-58.595556 0.568889-117.191111 0-176.355555 0-21.617778 7.395556-30.151111 29.582222-30.151111 63.715556 0 53.475556-3.982222 53.475556 51.2l-0.568889 77.937777z m0-196.835555c0 43.804444 0 43.804444-39.253334 43.804444-43.804444 0-43.804444 0-43.235555-44.373333 0-42.097778 0-42.097778 43.235555-42.097778 38.684444 0 38.684444 0 39.253334 42.666667z" fill="#FFFFFF" p-id="23146"></path></svg>