<?xml version="1.0" standalone="no"?><!DOCTYPE svg PUBLIC "-//W3C//DTD SVG 1.1//EN" "http://www.w3.org/Graphics/SVG/1.1/DTD/svg11.dtd"><svg t="1595924096731" class="icon" viewBox="0 0 1024 1024" version="1.1" xmlns="http://www.w3.org/2000/svg" p-id="33440" xmlns:xlink="http://www.w3.org/1999/xlink" width="200" height="200"><defs><style type="text/css">html, * { user-select: text !important; }
</style></defs><path d="M445.493333 46.72c95.733333-13.653333 195.626667 2.613333 281.493334 47.253333 92.373333 47.36 168.16 126.24 211.626666 220.48 46.986667 100.426667 56.16 217.706667 26.24 324.426667-26.24 94.293333-82.826667 180-159.573333 240.8-72.586667 58.133333-162.826667 94.24-255.68 101.013333-116.586667 10.293333-236.32-26.186667-328.053333-98.773333-66.08-51.52-117.546667-121.44-147.893334-199.466667-44.106667-112.48-42.186667-242.133333 5.226667-353.226666 61.866667-149.6 206.026667-261.226667 366.613333-282.506667M270.4 350.08c-61.76 30.453333-102.986667 98.4-99.413333 167.413333 0.693333 66.666667 42.72 130.24 102.933333 158.293334 39.253333 19.04 84.853333 21.173333 127.093333 12.64 49.12-10.293333 90.453333-41.973333 124.8-77.173334 53.6-54.72 86.453333-124.96 129.6-187.36 22.666667 41.173333 45.333333 82.346667 67.786667 123.573334-24.586667-15.786667-46.773333-35.04-72.16-49.653334-16.746667 11.946667-33.28 24.213333-50.186667 35.946667 62.08 49.013333 126.666667 94.826667 190.026667 142.186667 12.96 8.746667 27.84 23.253333 44.64 14.666666 17.6-7.146667 22.613333-30.346667 12.106667-45.44-52.373333-99.466667-108.48-196.906667-163.253334-295.093333-5.653333-13.066667-19.626667-22.773333-34.24-18.56-13.493333 2.133333-20.266667 15.52-27.146666 25.76-32.106667 52.8-61.813333 107.146667-97.44 157.76-33.866667 48.213333-77.12 96.373333-136.586667 110.88-58.026667 15.2-126.026667-14.506667-148.213333-71.68-17.813333-46.133333-2.933333-102.613333 36.533333-132.8 35.946667-29.013333 86.72-31.093333 129.386667-17.653333 42.666667 13.76 76.533333 44.48 110.773333 72.053333 17.493333-12.053333 36-23.146667 50.986667-38.4-44.96-39.84-93.013333-79.306667-151.146667-97.76-48.16-12.64-101.813333-13.12-146.88 10.4z" fill="#0f9d58" p-id="33441"></path><path d="M270.4 350.08c45.066667-23.52 98.72-23.04 146.88-10.4 58.133333 18.453333 106.186667 57.92 151.146667 97.76-14.986667 15.253333-33.493333 26.346667-50.986667 38.4-34.24-27.573333-68.106667-58.293333-110.773333-72.053333-42.666667-13.44-93.44-11.36-129.386667 17.653333-39.466667 30.186667-54.346667 86.666667-36.533333 132.8 22.186667 57.173333 90.186667 86.88 148.213333 71.68 59.466667-14.506667 102.72-62.666667 136.586667-110.88 35.626667-50.613333 65.333333-104.96 97.44-157.76 6.88-10.24 13.653333-23.626667 27.146666-25.76 14.613333-4.213333 28.586667 5.493333 34.24 18.56 54.773333 98.186667 110.88 195.626667 163.253334 295.093333 10.506667 15.093333 5.493333 38.293333-12.106667 45.44-16.8 8.586667-31.68-5.92-44.64-14.666666-63.36-47.36-127.946667-93.173333-190.026667-142.186667 16.906667-11.733333 33.44-24 50.186667-35.946667 25.386667 14.613333 47.573333 33.866667 72.16 49.653334-22.453333-41.226667-45.12-82.4-67.786667-123.573334-43.146667 62.4-76 132.64-129.6 187.36-34.346667 35.2-75.68 66.88-124.8 77.173334-42.24 8.533333-87.84 6.4-127.093333-12.64-60.213333-28.053333-102.24-91.626667-102.933333-158.293334-3.573333-69.013333 37.653333-136.96 99.413333-167.413333z" fill="#FFFFFF" p-id="33442"></path></svg>