<?xml version="1.0" encoding="UTF-8" standalone="no"?>
<!DOCTYPE svg PUBLIC "-//W3C//DTD SVG 1.1//EN" "http://www.w3.org/Graphics/SVG/1.1/DTD/svg11.dtd">
<!-- 由 Microsoft Visio, SVG Export 生成 logo.svg Page-1 -->
<svg xmlns="http://www.w3.org/2000/svg" xmlns:xlink="http://www.w3.org/1999/xlink" xmlns:ev="http://www.w3.org/2001/xml-events"
		xmlns:v="http://schemas.microsoft.com/visio/2003/SVGExtensions/" width="5.04839in" height="5.09229in"
		viewBox="0 0 363.484 366.645" xml:space="preserve" color-interpolation-filters="sRGB" class="st2">
	<v:documentProperties v:langID="2052" v:metric="true" v:viewMarkup="false">
		<v:userDefs>
			<v:ud v:nameU="msvSubprocessMaster" v:prompt="" v:val="VT4(Rectangle)"/>
			<v:ud v:nameU="msvNoAutoConnect" v:val="VT0(1):26"/>
		</v:userDefs>
	</v:documentProperties>

	<style type="text/css">
	<![CDATA[
		.st1 {fill:url(#grad0-4);stroke:none;stroke-linecap:butt;stroke-width:0.75}
		.st2 {fill:none;fill-rule:evenodd;font-size:12px;overflow:visible;stroke-linecap:square;stroke-miterlimit:3}
	]]>
	</style>

	<defs id="Patterns_And_Gradients">
		<linearGradient id="grad0-4" x1="0" y1="0" x2="1" y2="0" gradientTransform="rotate(135.00116050253 0.5 0.5)">
			<stop offset="0" stop-color="#006eff" stop-opacity="1"/>
			<stop offset="1" stop-color="#00eba0" stop-opacity="1"/>
		</linearGradient>
	</defs>
	<g v:mID="0" v:index="1" v:groupContext="foregroundPage">
		<v:userDefs>
			<v:ud v:nameU="msvThemeOrder" v:val="VT0(0):26"/>
		</v:userDefs>
		<title>页-1</title>
		<v:pageProperties v:drawingScale="0.0393701" v:pageScale="0.0393701" v:drawingUnits="24" v:shadowOffsetX="9"
				v:shadowOffsetY="-9"/>
		<g id="shape1-1" v:mID="1" v:groupContext="shape" transform="translate(18.75,-18.75)">
			<title>工作表.1</title>
			<path d="M163.77 243.61 L250.19 317.36 L239.73 366.64 L163.77 311.55 L87.81 366.64 L77.35 317.36 L163.77 243.61 ZM277.03
						 114.6 L325.98 125.16 L271.45 201.89 L325.98 278.64 L277.03 289.38 L204.02 201.89 L277.03 114.6 ZM48.96 114.6
						 L121.97 201.89 L48.96 289.38 L0 278.64 L54.53 201.89 L0 125.16 L48.96 114.6 ZM162.99 181.5 A20.374 20.5715
						 0 0 1 162.99 222.64 A20.374 20.5715 0 1 1 162.99 181.5 ZM239.73 37.5 L250.19 86.96 L163.77 160.71 L77.36
						 86.96 L87.81 37.5 L163.77 92.59 L239.74 37.5 L239.73 37.5 Z" class="st1"/>
		</g>
	</g>
</svg>
