<?xml version="1.0" encoding="UTF-8" standalone="no"?>
<!DOCTYPE svg PUBLIC "-//W3C//DTD SVG 1.1//EN" "http://www.w3.org/Graphics/SVG/1.1/DTD/svg11.dtd">
<!-- 由 Microsoft Visio, SVG Export 生成 ico.svg Page-1 -->
<svg xmlns="http://www.w3.org/2000/svg" xmlns:xlink="http://www.w3.org/1999/xlink" xmlns:ev="http://www.w3.org/2001/xml-events"
		xmlns:v="http://schemas.microsoft.com/visio/2003/SVGExtensions/" width="2.6665in" height="2.56255in"
		viewBox="0 0 191.988 184.503" xml:space="preserve" color-interpolation-filters="sRGB" class="st2">
	<v:documentProperties v:langID="2052" v:metric="true" v:viewMarkup="false">
		<v:userDefs>
			<v:ud v:nameU="msvSubprocessMaster" v:prompt="" v:val="VT4(Rectangle)"/>
			<v:ud v:nameU="msvNoAutoConnect" v:val="VT0(1):26"/>
		</v:userDefs>
	</v:documentProperties>

	<style type="text/css">
	<![CDATA[
		.st1 {fill:#ff0000;stroke:none;stroke-linecap:butt;stroke-width:0.75}
		.st2 {fill:none;fill-rule:evenodd;font-size:12px;overflow:visible;stroke-linecap:square;stroke-miterlimit:3}
	]]>
	</style>

	<g v:mID="0" v:index="1" v:groupContext="foregroundPage">
		<v:userDefs>
			<v:ud v:nameU="msvThemeOrder" v:val="VT0(0):26"/>
		</v:userDefs>
		<title>页-1</title>
		<v:pageProperties v:drawingScale="0.0393701" v:pageScale="0.0393701" v:drawingUnits="24" v:shadowOffsetX="9"
				v:shadowOffsetY="-9"/>
		<g id="shape62-1" v:mID="62" v:groupContext="shape" transform="translate(18.75,-18.75)">
			<title>工作表.62</title>
			<path d="M61.54 184.5 L0 121.4 L61.18 37.5 L154.49 82.48 L61.54 184.5 ZM2.71 121.2 L61.49 181.48 L151.08 83.14 L61.84
						 40.12 L2.71 121.2 Z" class="st1"/>
		</g>
		<g id="shape63-3" v:mID="63" v:groupContext="shape" transform="translate(60.6302,-68.827)">
			<title>工作表.63</title>
			<path d="M33.65 147.19 C33.65 156.84 26.9 160 17.11 163.66 C9.15 166.63 1.09 166.06 0.21 180.14 C2.32 172.96 6.34 170.49
						 11.12 170.49 C18.37 170.49 21.12 175.85 27.17 175.85 C30.7 175.85 34.42 174.23 34.42 168.95 L34.42 168.66
						 L34.56 168.66 L34.56 169.51 C34.56 177.25 30.41 184.5 23.23 184.5 C13.65 184.5 12.53 177.32 5.98 177.53
						 C2.46 177.64 0.14 180 0.14 183.52 L0 183.52 L0 182.47 C0 169.09 5.56 167.47 13.59 161.41 C20.98 155.85 21.75
						 151.21 21.75 145.64 C21.75 138.25 19.22 134.03 13.66 134.03 C7.54 134.03 1.41 137.83 0.85 144.09 C1.55 141.56
						 3.87 139.66 6.62 139.66 C9.93 139.66 12.6 142.34 12.6 145.64 C12.6 148.95 9.93 151.63 6.62 151.63 C2.68
						 151.63 0.63 148.53 0.63 145.15 C0.63 138.32 6.9 133.25 16.69 133.25 C25.91 133.25 33.65 139.8 33.65 147.19
						 Z" class="st1"/>
		</g>
		<g id="shape64-5" v:mID="64" v:groupContext="shape" transform="translate(100.374,-100.659)">
			<title>工作表.64</title>
			<path d="M0 184.01 L3 184.01 L3 165.54 L0 165.54 L0 165.16 L5.03 165.16 C5.28 165.16 5.53 165.16 5.78 165.15 C6.03 165.14
						 6.28 165.13 6.54 165.11 C6.79 165.11 7.04 165.1 7.29 165.1 C7.55 165.09 7.8 165.08 8.05 165.08 C8.59 165.08
						 9.07 165.09 9.5 165.11 C9.92 165.13 10.31 165.16 10.68 165.21 C11.05 165.25 11.4 165.32 11.74 165.39 C12.07
						 165.47 12.42 165.58 12.8 165.7 C13.9 166.07 14.85 166.55 15.65 167.15 C16.45 167.75 17.11 168.45 17.62 169.24
						 C18.13 170.03 18.51 170.9 18.75 171.83 C19 172.77 19.12 173.75 19.12 174.78 C19.12 175.97 18.97 177.03 18.68
						 177.98 C18.4 178.93 18 179.76 17.5 180.49 C16.99 181.22 16.41 181.85 15.73 182.38 C15.05 182.91 14.33 183.34
						 13.55 183.66 C13.12 183.86 12.72 184.01 12.33 184.12 C11.94 184.23 11.54 184.31 11.14 184.36 C10.73 184.42
						 10.29 184.46 9.8 184.48 C9.32 184.49 8.76 184.5 8.13 184.5 C7.86 184.5 7.57 184.5 7.27 184.49 C6.96 184.48
						 6.65 184.47 6.35 184.45 C6.04 184.43 5.74 184.42 5.44 184.41 C5.14 184.4 4.86 184.4 4.59 184.4 L0 184.4
						 L0 184.01 L0 184.01 ZM5.7 184.01 C6.01 184.05 6.37 184.07 6.77 184.09 C7.17 184.11 7.62 184.12 8.1 184.12
						 C8.71 184.12 9.32 184.09 9.93 184.02 C10.53 183.96 11.1 183.82 11.66 183.62 C12.2 183.41 12.72 183.11 13.19
						 182.72 C13.67 182.34 14.1 181.83 14.48 181.2 C15.05 180.23 15.45 179.23 15.68 178.21 C15.9 177.2 16.02 176.09
						 16.02 174.88 C16.02 173.46 15.88 172.17 15.61 171.01 C15.34 169.84 14.9 168.85 14.28 168.04 C13.65 167.22
						 12.83 166.58 11.8 166.13 C10.77 165.68 9.51 165.45 8 165.45 C7.55 165.45 7.14 165.46 6.77 165.48 C6.4 165.5
						 6.04 165.52 5.7 165.53 L5.7 184.01 Z" class="st1"/>
		</g>
	</g>
</svg>
