<?xml version="1.0" standalone="no"?><!DOCTYPE svg PUBLIC "-//W3C//DTD SVG 1.1//EN" "http://www.w3.org/Graphics/SVG/1.1/DTD/svg11.dtd"><svg t="1595916549523" class="icon" viewBox="0 0 1027 1024" version="1.1" xmlns="http://www.w3.org/2000/svg" p-id="24555" xmlns:xlink="http://www.w3.org/1999/xlink" width="200.5859375" height="200"><defs><style type="text/css">html, * { user-select: text !important; }
</style></defs><path d="M160.313112 2.003914h707.381604c86.168297 0 157.307241 70.136986 157.307241 156.305284v709.385518c0 86.168297-71.138943 156.305284-157.307241 156.305284H160.313112c-86.168297 0-157.307241-70.136986-157.307241-156.305284V158.309198C3.005871 73.142857 73.142857 2.003914 160.313112 2.003914z" fill="#FFFFFF" p-id="24556"></path><path d="M929.816047 678.324853V420.821918c0-23.04501-15.029354-45.088063-38.074364-53.103718l-85.166341-23.04501-124.242661 253.495107S554.082192 276.540117 554.082192 273.534247l-134.262231-36.070451c-6.011742-2.003914-13.02544-2.003914-19.037182-2.003913-38.074364 0-66.129159 30.058708-66.129159 66.129158v383.749511c0 34.066536 28.054795 62.121331 62.121331 62.121331h6.011742l53.103718-4.007828h-4.007828V339.663405l158.309198 385.753425 117.228963-11.021527 151.295499-296.579256v215.420744c0 77.150685-57.111546 141.27593-136.266145 151.295499l-379.741683 34.066536h-9.017613c-64.125245 0-115.225049-51.099804-115.225049-113.221135v-390.76321c0-43.084149-2.003914-81.158513 28.054795-117.228962 23.04501-30.058708 62.121331-45.088063 98.191781-45.088063 13.02544 0 26.050881 2.003914 38.074364 6.011742l436.853229 121.23679h6.011741c13.02544 0 23.04501-11.021526 23.04501-23.04501 0-11.021526-6.011742-19.037182-17.033268-21.041095L383.749511 109.213307c-23.04501-9.017613-49.09589-13.02544-75.146771-13.02544C191.373777 96.187867 97.189824 188.367906 97.189824 300.587084v439.8591c0 104.203523 87.170254 189.369863 194.379648 189.369863h17.033268l424.829745-40.078278c113.221135-10.019569 196.383562-102.199609 196.383562-211.412916z" fill="#F06000" p-id="24557"></path></svg>