<svg viewBox="0 0 260 260" fill="none" xmlns="http://www.w3.org/2000/svg" id="el_dEAV1r_C5"><style>@-webkit-keyframes kf_el__T1tvC81Mg_an_m5P9GebRb{0%{-webkit-transform: translate(130px, 130px) rotate(0deg) translate(-130px, -130px);transform: translate(130px, 130px) rotate(0deg) translate(-130px, -130px);}100%{-webkit-transform: translate(130px, 130px) rotate(360deg) translate(-130px, -130px);transform: translate(130px, 130px) rotate(360deg) translate(-130px, -130px);}}@keyframes kf_el__T1tvC81Mg_an_m5P9GebRb{0%{-webkit-transform: translate(130px, 130px) rotate(0deg) translate(-130px, -130px);transform: translate(130px, 130px) rotate(0deg) translate(-130px, -130px);}100%{-webkit-transform: translate(130px, 130px) rotate(360deg) translate(-130px, -130px);transform: translate(130px, 130px) rotate(360deg) translate(-130px, -130px);}}#el_dEAV1r_C5 *{-webkit-animation-duration: 2s;animation-duration: 2s;-webkit-animation-iteration-count: infinite;animation-iteration-count: infinite;-webkit-animation-timing-function: cubic-bezier(0, 0, 1, 1);animation-timing-function: cubic-bezier(0, 0, 1, 1);}#el_yc11ni8HOP{fill: #2A2A2A;}#el_kEsWvJdYh3{fill: white;}#el__T1tvC81Mg{stroke: url(#paint0_linear);stroke-width: 8;}#el__T1tvC81Mg_an_m5P9GebRb{-webkit-animation-fill-mode: none;animation-fill-mode: none;-webkit-animation-name: kf_el__T1tvC81Mg_an_m5P9GebRb;animation-name: kf_el__T1tvC81Mg_an_m5P9GebRb;-webkit-animation-timing-function: cubic-bezier(0, 0, 1, 1);animation-timing-function: cubic-bezier(0, 0, 1, 1);}</style>
<rect width="260" height="260" rx="130" id="el_yc11ni8HOP"/>
<path d="M182.686 102.73C180.928 99.3283 177.996 96.5131 174.01 94.2844C170.023 92.0557 165.216 91 159.705 91C150.442 91 142.703 94.8709 136.606 102.73C132.033 94.8709 124.412 91 113.742 91C105.3 91 98.7336 93.9325 93.809 99.7975V92.9941H72V169.473H93.809V128.419C93.809 126.659 93.9262 125.134 94.1607 123.492C94.3952 121.967 94.8642 120.09 95.685 117.862C96.5058 115.633 97.7955 113.873 99.7888 112.583C101.665 111.293 104.127 110.589 106.941 110.589C115.032 110.589 119.135 115.398 119.135 125.017V169.591H140.944V127.363C141.765 116.102 146.104 110.589 153.959 110.589C157.243 110.589 159.822 111.527 161.698 113.404C163.574 115.281 164.864 117.158 165.333 119.035C165.802 120.911 166.036 122.905 166.036 125.017V169.591H187.845V120.325C187.845 117.744 187.494 115.046 186.673 112.231C185.852 109.416 184.562 106.132 182.686 102.73Z" id="el_kEsWvJdYh3"/>
<g id="el__T1tvC81Mg_an_m5P9GebRb" data-animator-group="true" data-animator-type="1"><circle cx="130" cy="130" r="126" id="el__T1tvC81Mg"/></g>
<defs>
<linearGradient id="paint0_linear" x1="130" y1="0" x2="130" y2="260" gradientUnits="userSpaceOnUse">
<stop stop-color="#F3556F"/>
<stop offset="1" stop-color="#005EA2"/>
</linearGradient>
</defs>
</svg>