<?xml version="1.0" standalone="no"?><!DOCTYPE svg PUBLIC "-//W3C//DTD SVG 1.1//EN" "http://www.w3.org/Graphics/SVG/1.1/DTD/svg11.dtd"><svg t="1595903623117" class="icon" viewBox="0 0 1281 1024" version="1.1" xmlns="http://www.w3.org/2000/svg" p-id="17728" xmlns:xlink="http://www.w3.org/1999/xlink" width="250.1953125" height="200"><defs><style type="text/css">html, * { user-select: text !important; }
</style></defs><path d="M948.939241 498.363262c-49.895924-9.727095-25.578186-36.514802-25.578186-36.514802s48.635476-80.350389-9.637973-138.776619c-72.571259-72.418478-248.422879 9.128701-248.422879 9.128701-67.147513 20.905615-49.361188-9.459727-39.850534-61.11264 0-60.896199-20.841956-163.934655-199.812867-103.051188-178.843593 61.18903-332.299977 275.630736-332.299977 275.630736C-13.495708 586.263608 0.649322 696.508264 0.649322 696.508264c26.73678 243.024596 285.00134 309.777423 485.858215 325.539391 211.437001 16.589535 496.629318-72.851359 583.205558-256.609427 86.397994-184.254608-70.776076-257.13143-120.773854-267.074966z" fill="#E82014" p-id="17729"></path><path d="M502.167651 953.435985c-209.781867 9.816218-379.407637-95.386645-379.407637-235.449175 0-140.278971 169.651233-252.751691 379.407637-262.427859s379.85325 76.785485 379.85325 217.013529c0 139.98614-169.944065 271.314656-379.85325 280.863505z" fill="#FFFFFF" p-id="17730"></path><path d="M460.318225 547.851768c-211.08051 24.725155-186.635455 222.577326-186.635455 222.577326s-2.164406 62.60226 56.567387 94.406296c123.498459 66.91834 250.625481 26.393021 314.84468-56.567387s26.545803-284.912218-184.776612-260.416235z" fill="" p-id="17731"></path><path d="M1026.501366 8.265357c-74.582884-17.468029-151.151928-2.457237-172.770525 1.655134-1.527816 0.178245-3.157486 1.744257-4.67257 2.037088a2.419042 2.419042 0 0 0-1.171326 0.929422 50.481587 50.481587 0 0 0 13.597562 99.027939s27.207856-3.564904 45.490721-10.758371 172.770524-5.525601 249.543278 123.307482c41.887622 94.037074 18.282865 156.944897 15.405478 167.092142 0 0-9.994463 24.40686-9.994463 48.495425-0.050927 27.768056 22.369772 45.185158 50.125096 45.185158 23.235535 0 42.600602-3.157486 48.457231-42.333234h0.280099C1343.115765 168.4314 1159.981556 39.343681 1026.501366 8.265357z" fill="#FFA21F" p-id="17732"></path><path d="M1051.723061 412.792835a34.490446 34.490446 0 0 0 33.955711-28.952113 15.940213 15.940213 0 0 0 0.369222-3.692222c25.743699-231.795149-189.894795-191.944615-189.894795-191.944615a34.681423 34.681423 0 0 0 0 69.362846c154.933273-34.223078 120.697463 120.697463 120.697462 120.697463a34.706886 34.706886 0 0 0 34.8724 34.528641z" fill="#FFA21F" p-id="17733"></path><path d="M531.438059 719.591017c-13.330194 9.90534-29.766948 8.644892-36.78217-3.424854-7.384444-11.713256-4.59618-30.352611 8.91226-40.079706 15.672846-11.802378 31.918622-8.377524 38.997503 3.233877 6.989758 11.904233 1.935234 29.817875-11.127593 40.270683zM407.048374 825.608714c-39.353993 4.583448-71.15803-18.282865-71.158029-51.169103s28.200937-67.19844 67.682248-71.29808c45.223353-4.31608 74.672006 21.64406 74.672006 54.74674 0 32.911703-31.982281 63.226118-71.196225 67.720443z" fill="#FFFFFF" p-id="17734"></path></svg>