<?xml version="1.0" standalone="no"?><!DOCTYPE svg PUBLIC "-//W3C//DTD SVG 1.1//EN" "http://www.w3.org/Graphics/SVG/1.1/DTD/svg11.dtd"><svg t="1595909788899" class="icon" viewBox="0 0 1024 1024" version="1.1" xmlns="http://www.w3.org/2000/svg" p-id="23475" xmlns:xlink="http://www.w3.org/1999/xlink" width="200" height="200"><defs><style type="text/css">html, * { user-select: text !important; }
</style></defs><path d="M460.8 657.92c0 12.8 0 28.16 15.36 35.84 12.8 7.68 25.6 2.56 35.84-5.12 84.48-56.32 171.52-112.64 256-168.96 28.16-20.48 28.16-48.64 0-66.56-84.48-56.32-171.52-112.64-256-166.4-7.68-5.12-15.36-7.68-20.48-7.68-20.48 0-30.72 10.24-30.72 33.28v61.44c-2.56 97.28-2.56 192 0 284.16z" fill="#DA010C" p-id="23476"></path><path d="M161.28 524.8c2.56 0 2.56 2.56 2.56 5.12 0 15.36 2.56 66.56 58.88 115.2 0-15.36 2.56-56.32 20.48-92.16 0-2.56 2.56-2.56 5.12-2.56s2.56 0 5.12 2.56c5.12 10.24 33.28 58.88 89.6 87.04-81.92-140.8-35.84-322.56 107.52-407.04l10.24-5.12c-25.6-12.8-51.2-17.92-79.36-20.48-84.48-5.12-153.6 23.04-209.92 84.48l-7.68 7.68c-7.68 15.36-17.92 30.72-25.6 46.08-33.28 64-40.96 135.68-35.84 204.8 2.56 30.72 7.68 58.88 17.92 84.48 2.56-28.16 7.68-76.8 35.84-110.08h5.12z" p-id="23477"></path><path d="M960 419.84c-48.64-220.16-256-358.4-463.36-337.92-120.32 12.8-220.16 64-296.96 156.16-12.8 15.36-20.48 30.72-30.72 46.08C202.24 240.64 240.64 204.8 289.28 174.08c158.72-97.28 371.2-76.8 496.64 51.2 71.68 74.24 107.52 166.4 110.08 268.8 0 128-87.04 243.2-209.92 279.04-122.88 35.84-261.12-12.8-330.24-117.76l-2.56-5.12c-58.88-28.16-92.16-76.8-99.84-92.16-25.6 43.52-23.04 94.72-23.04 94.72v7.68l-5.12-5.12c-58.88-48.64-66.56-99.84-66.56-120.32C128 576 128 640 128 655.36c66.56 186.88 250.88 307.2 458.24 284.16 253.44-25.6 427.52-271.36 373.76-519.68z" fill="#DA010C" p-id="23478"></path></svg>