<?xml version="1.0" standalone="no"?><!DOCTYPE svg PUBLIC "-//W3C//DTD SVG 1.1//EN" "http://www.w3.org/Graphics/SVG/1.1/DTD/svg11.dtd"><svg t="1595903785009" class="icon" viewBox="0 0 1024 1024" version="1.1" xmlns="http://www.w3.org/2000/svg" p-id="18749" xmlns:xlink="http://www.w3.org/1999/xlink" width="200" height="200"><defs><style type="text/css">html, * { user-select: text !important; }
</style></defs><path d="M512 512m-506.905473 0a506.905473 506.905473 0 1 0 1013.810946 0 506.905473 506.905473 0 1 0-1013.810946 0Z" fill="#FFFFFF" p-id="18750"></path><path d="M512 1021.452736a509.452736 509.452736 0 1 1 509.452736-509.452736 510.013134 510.013134 0 0 1-509.452736 509.452736z m0-1013.810945a504.358209 504.358209 0 1 0 504.358209 504.358209 504.969552 504.969552 0 0 0-504.358209-504.358209z" fill="#FAFAFA" p-id="18751"></path><path d="M698.103085 924.656716q279.587662-134.138905 270.00995-450.356218c-22.466866-347.905274-443.223881-487.597214-538.134926-271.283583-44.72995 198.126169 225.738507 176.168756 332.31602 323.553433q143.054328 201.641393-64.191044 398.086368z" fill="#3EA1FC" p-id="18752"></path><path d="M321.770348 100.056517q-279.587662 134.138905-270.00995 450.356219c22.466866 347.905274 443.223881 487.597214 538.134925 271.283582 44.831841-198.126169-225.636617-176.117811-332.214129-323.502487Q114.626866 296.246766 321.770348 100.056517z" fill="#3EA1FC" p-id="18753"></path></svg>