<?xml version="1.0" encoding="UTF-8" standalone="no"?>
<!DOCTYPE svg PUBLIC "-//W3C//DTD SVG 1.1//EN" "http://www.w3.org/Graphics/SVG/1.1/DTD/svg11.dtd">
<!-- 由 Microsoft Visio, SVG Export 生成 totop.svg 页-1 -->
<svg xmlns="http://www.w3.org/2000/svg" xmlns:xlink="http://www.w3.org/1999/xlink" xmlns:ev="http://www.w3.org/2001/xml-events"
		xmlns:v="http://schemas.microsoft.com/visio/2003/SVGExtensions/" width="0.675535in" height="0.79877in"
		viewBox="0 0 48.6385 57.5114" xml:space="preserve" color-interpolation-filters="sRGB" class="st6">
	<v:documentProperties v:langID="2052" v:metric="true" v:viewMarkup="false"/>

	<style type="text/css">
	<![CDATA[
		.st1 {fill:#ff8b00;stroke:none;stroke-linecap:butt;stroke-width:0.146484}
		.st2 {fill:#5b7373;stroke:none;stroke-linecap:butt;stroke-width:0.146484}
		.st3 {fill:#e6ffff;stroke:none;stroke-linecap:butt;stroke-width:0.146484}
		.st4 {fill:#5b7373}
		.st5 {stroke:none;stroke-linecap:butt;stroke-width:0.146484}
		.st6 {fill:none;fill-rule:evenodd;font-size:12px;overflow:visible;stroke-linecap:square;stroke-miterlimit:3}
	]]>
	</style>

	<g v:mID="0" v:index="1" v:groupContext="foregroundPage">
		<title>页-1</title>
		<v:pageProperties v:drawingScale="0.0393701" v:pageScale="0.0393701" v:drawingUnits="24" v:shadowOffsetX="9"
				v:shadowOffsetY="-9"/>
		<g id="group24-1" transform="translate(11.112,0)" v:mID="24" v:groupContext="group">
			<title>工作表.24</title>
			<g id="shape19-2" v:mID="19" v:groupContext="shape" transform="translate(-21.7815,-0.254494) rotate(-35)">
				<title>工作表.19</title>
				<path d="M9.44 47.63 L6.45 45.58 C6.45 45.58 0 50.7 2.51 56.37 A1.7643 1.78355 -180 0 0 4.04 57.42 C5.94 57.51 9.96
							 56.78 12.43 49.67 L9.44 47.63 Z" class="st1"/>
			</g>
			<g id="shape20-4" v:mID="20" v:groupContext="shape" transform="translate(-24.3647,1.75059) rotate(-35)">
				<title>工作表.20</title>
				<path d="M21.09 41.61 C21.09 41.61 28.85 47.2 22.36 57.45 C22.32 57.51 22.23 57.5 22.22 57.42 C21.99 56.36 20.69
							 51.16 16.39 48.61 L21.09 41.61 L21.09 41.61 ZM15.08 37.48 C15.08 37.48 7.06 32.26 0.04 42.15 C0 42.2
							 0.05 42.28 0.12 42.27 C1.18 42.09 6.44 41.39 10.37 44.49 L15.08 37.48 Z" class="st2"/>
			</g>
			<g id="shape21-6" v:mID="21" v:groupContext="shape" transform="translate(-21.5118,-7.48046) rotate(-35)">
				<title>工作表.21</title>
				<path d="M22.83 42.02 C26.15 35.6 21.99 28.85 21.99 28.85 C21.99 28.85 14.25 27.44 9.58 32.93 C6.27 36.82 2.3 44.17
							 0.27 48.13 A3.33391 3.37028 -180 0 0 1.36 52.47 L4.64 54.71 L7.91 56.96 A3.33481 3.37119 -180 0 0 12.3
							 56.38 C15.19 53.01 20.48 46.56 22.83 42.02 Z" class="st3"/>
			</g>
			<g id="shape22-8" v:mID="22" v:groupContext="shape" transform="translate(-21.5031,-7.45167) rotate(-35)">
				<title>工作表.22</title>
				<path d="M19.73 28.66 C17.08 28.66 12.66 29.28 9.58 32.9 C6.27 36.79 2.3 44.14 0.27 48.1 A3.33391 3.37028 -180 0
							 0 1.36 52.44 L4.64 54.68 L7.91 56.93 A3.32514 3.36141 -180 0 0 9.78 57.51 C10.72 57.51 11.65 57.11 12.3
							 56.35 C15.19 52.98 20.48 46.53 22.83 41.99 C26.15 35.57 21.99 28.82 21.99 28.82 C21.99 28.82 21.09 28.66
							 19.73 28.66 L19.73 28.66 ZM19.73 29.88 C20.35 29.88 20.87 29.92 21.23 29.96 C22.03 31.53 24.24 36.62
							 21.76 41.42 C19.47 45.84 14.28 52.17 11.39 55.55 A2.12345 2.14661 0 0 1 8.59 55.92 L5.31 53.67 L2.04
							 51.43 A2.12526 2.14844 0 0 1 1.35 48.66 C3.38 44.7 7.28 37.48 10.49 33.7 C13.32 30.38 17.49 29.88 19.73
							 29.88 Z" class="st4"/>
				<path d="M19.73 28.66 C17.08 28.66 12.66 29.28 9.58 32.9 C6.27 36.79 2.3 44.14 0.27 48.1 A3.33391 3.37028 -180 0
							 0 1.36 52.44 L4.64 54.68 L7.91 56.93 A3.32514 3.36141 -180 0 0 9.78 57.51 C10.72 57.51 11.65 57.11 12.3
							 56.35 C15.19 52.98 20.48 46.53 22.83 41.99 C26.15 35.57 21.99 28.82 21.99 28.82 C21.99 28.82 21.09 28.66
							 19.73 28.66M19.73 29.88 C20.35 29.88 20.87 29.92 21.23 29.96 C22.03 31.53 24.24 36.62 21.76 41.42 C19.47
							 45.84 14.28 52.17 11.39 55.55 A2.12345 2.14661 0 0 1 8.59 55.92 L5.31 53.67 L2.04 51.43 A2.12526 2.14844
							 0 0 1 1.35 48.66 C3.38 44.7 7.28 37.48 10.49 33.7 C13.32 30.38 17.49 29.88 19.73 29.88" class="st5"/>
			</g>
			<g id="shape23-11" v:mID="23" v:groupContext="shape" transform="translate(-21.0077,10.3282) rotate(-35)">
				<title>工作表.23</title>
				<path d="M24.13 25.29 C22.59 24.24 22.19 22.13 23.23 20.57 C24.28 19.02 26.37 18.62 27.9 19.67 C29.44 20.72 29.84
							 22.83 28.8 24.39 C27.75 25.94 25.66 26.35 24.13 25.29 L24.13 25.29 ZM28.57 18.68 C26.49 17.25 23.66
							 17.8 22.25 19.9 C20.84 22 21.39 24.86 23.46 26.28 C25.54 27.71 28.37 27.16 29.78 25.06 C31.19 22.96
							 30.65 20.1 28.57 18.68 ZM0.49 57.51 L0 57.16 L6.05 48.45 L6.54 48.8 L0.49 57.51 ZM4.12 56.74 L3.63 56.4
							 L6.95 51.51 L7.45 51.86 L4.12 56.74 Z" class="st4"/>
				<path d="M24.13 25.29 C22.59 24.24 22.19 22.13 23.23 20.57 C24.28 19.02 26.37 18.62 27.9 19.67 C29.44 20.72 29.84
							 22.83 28.8 24.39 C27.75 25.94 25.66 26.35 24.13 25.29M28.57 18.68 C26.49 17.25 23.66 17.8 22.25 19.9
							 C20.84 22 21.39 24.86 23.46 26.28 C25.54 27.71 28.37 27.16 29.78 25.06 C31.19 22.96 30.65 20.1 28.57
							 18.68M0.49 57.51 L0 57.16 L6.05 48.45 L6.54 48.8 L0.49 57.51M4.12 56.74 L3.63 56.4 L6.95 51.51 L7.45
							 51.86 L4.12 56.74" class="st5"/>
			</g>
		</g>
	</g>
</svg>
