<?xml version="1.0" standalone="no"?><!DOCTYPE svg PUBLIC "-//W3C//DTD SVG 1.1//EN" "http://www.w3.org/Graphics/SVG/1.1/DTD/svg11.dtd"><svg t="1586601174711" class="icon" viewBox="0 0 1024 1024" version="1.1" xmlns="http://www.w3.org/2000/svg" p-id="13016" xmlns:xlink="http://www.w3.org/1999/xlink" width="200" height="200"><defs><style type="text/css">html, * { user-select: text !important; }
</style></defs><path d="M671.584 456.544c-22.624-65.28 5.984-170.656 5.984-170.656s-97.28 55.904-168.544 55.456-162.144-55.456-162.144-55.456 23.904 104.96 2.976 172.384c-20.48 67.424-105.376 142.496-105.376 142.496s110.08 9.824 164.256 46.944S512 795.328 512 795.328s33.28-100.256 98.976-145.504c65.696-45.664 168.96-49.056 168.96-49.056s-85.344-78.496-108.384-143.776z m-85.344 157.44c-46.496 34.56-74.656 93.44-74.656 93.44s-32.416-61.024-76.8-94.72c-44.8-33.696-109.664-41.376-109.664-41.376a215.904 215.904 0 0 0 64.864-99.584l0.416-1.536c19.616-65.696 7.68-116.48 7.68-116.48s39.264 29.856 111.776 29.856c72.544 0 119.04-29.856 119.04-29.856s-16.224 67.424 2.976 115.2c18.784 48.64 66.976 102.816 66.976 102.816s-66.56 7.264-112.64 42.24z m-0.416-204.384s-40.544 16.224-75.52 15.776c-34.976 0-72.544-15.776-72.544-15.776 2.144 24.736 0 49.056-7.264 72.544-11.52 36.704-38.816 69.984-38.816 69.984a181.248 181.248 0 0 1 119.872 84.928l0.448 0.832s19.2-36.256 50.336-56.736a252.544 252.544 0 0 1 69.536-29.856s-31.584-33.28-43.52-66.976c-11.936-33.28-2.56-74.656-2.56-74.656zM857.6 512l141.216-157.856-206.944-45.664 21.344-210.784-194.56 85.344L512 0l-106.656 183.04L211.2 97.696l20.896 211.2-206.944 44.8L165.952 512 25.568 669.856l206.944 45.664-21.344 210.784 194.144-85.344L511.968 1024l106.656-183.04 194.56 85.344-21.344-210.784 206.944-45.216-140.8-158.304z m-224.864 168.544c-35.424 26.016-120.736 207.36-120.736 207.36s-64-164.704-128-207.36c-63.136-42.656-229.536-52.064-229.536-52.064s127.584-101.12 152.32-190.72c25.184-89.6-15.776-229.12-15.776-229.12s123.744 89.6 216.736 89.6c92.576 0 224.416-89.6 224.416-89.6s-34.976 192-22.624 232.96c12.8 40.96 159.136 186.88 159.136 186.88s-200.544 26.464-236.384 52.064z" fill="#DD1100" p-id="13017"></path></svg>