<?xml version="1.0" standalone="no"?><!DOCTYPE svg PUBLIC "-//W3C//DTD SVG 1.1//EN" "http://www.w3.org/Graphics/SVG/1.1/DTD/svg11.dtd"><svg t="1595813214140" class="icon" viewBox="0 0 1024 1024" version="1.1" xmlns="http://www.w3.org/2000/svg" p-id="11499" xmlns:xlink="http://www.w3.org/1999/xlink" width="200" height="200"><defs><style type="text/css">html, * { user-select: text !important; }
</style></defs><path d="M502.857143 502.857143m-393.142857 0a393.142857 393.142857 0 1 0 786.285714 0 393.142857 393.142857 0 1 0-786.285714 0Z" opacity=".12" p-id="11500"></path><path d="M502.857143 502.857143m-374.857143 0a374.857143 374.857143 0 1 0 749.714286 0 374.857143 374.857143 0 1 0-749.714286 0Z" fill="#FFFFFF" p-id="11501"></path><path d="M744.649143 347.922286L543.634286 544.548571v244.425143c0 4.388571-19.090286 7.917714-40.795429 8.228572-20.845714-0.310857-40.777143-3.84-40.777143-8.228572V544.530286L261.046857 347.922286c-3.218286-3.218286 7.04-18.468571 22.893714-34.322286s31.396571-26.130286 34.322286-22.893714l184.283429 179.876571 184.283428-179.876571c3.218286-3.236571 18.468571 7.04 34.322286 22.893714s26.404571 31.085714 23.478857 34.322286z" fill="#EC1C24" p-id="11502"></path></svg>