<?xml version="1.0" standalone="no"?><!DOCTYPE svg PUBLIC "-//W3C//DTD SVG 1.1//EN" "http://www.w3.org/Graphics/SVG/1.1/DTD/svg11.dtd"><svg t="1595907130055" class="icon" viewBox="0 0 1024 1024" version="1.1" xmlns="http://www.w3.org/2000/svg" p-id="20647" xmlns:xlink="http://www.w3.org/1999/xlink" width="200" height="200"><defs><style type="text/css">html, * { user-select: text !important; }
</style></defs><path d="M229.6448 214.96064c-13.8496 7.63648-39.232 32.1408-50.19648 48.46336-5.51936 8.21504-6.70208 14.54592-3.84 20.57472 1.69728 3.57632 61.8496 63.3728 154.13504 153.216 73.75872 71.81056 92.1472 90.33984 95.04768 95.77728l2.72896 5.12 0.512 150.528 0.512 150.528 2.42432 4.23168c5.51936 9.62816 15.62112 12.1088 49.28768 12.09856 34.69312-0.01024 44.86656-2.5472 49.75872-12.39808 1.88672-3.79904 1.9712-9.01376 2.46528-154.46016l0.512-150.528 2.30912-4.32384c3.84-7.18336-13.27872 9.8688 163.57888-162.944 81.20832-79.35232 82.77504-80.9344 85.59104-86.3872 5.19424-10.06336-1.1136-21.48608-25.088-45.42464-26.46016-26.42176-38.4896-31.90272-50.11456-22.8352-4.0448 3.15136-126.85056 122.57024-192.1536 186.84928-32.18432 31.68-34.55744 33.216-43.66336 28.27008-3.33312-1.80992-52.67712-49.50016-158.57152-153.25696-74.06336-72.56576-71.5008-70.67136-85.2352-63.09888" fill="#EC1A22" p-id="20648"></path><path d="M0 512v512h1024V0H0v512M248.88832 214.91456c2.50368 1.62048 32.19968 30.03648 65.99168 63.14496 105.8944 103.7568 155.2384 151.44704 158.57152 153.25696 9.10592 4.94592 11.47904 3.40992 43.66336-28.27008 65.30304-64.27904 188.1088-183.69792 192.1536-186.84928 11.62496-9.06752 23.6544-3.58656 50.11456 22.8352 23.9744 23.93856 30.28224 35.36128 25.088 45.42464-2.816 5.4528-4.38272 7.03488-85.59104 86.3872-176.8576 172.8128-159.73888 155.76064-163.57888 162.944l-2.30912 4.32384-0.512 150.528c-0.49408 145.4464-0.57856 150.66112-2.46528 154.46016-4.89216 9.85088-15.0656 12.38784-49.75872 12.39808-33.66656 0.01024-43.76832-2.4704-49.28768-12.09856l-2.42432-4.23168-0.512-150.528-0.512-150.528-2.72896-5.12c-2.90048-5.43744-21.28896-23.96672-95.04768-95.77728-92.28544-89.8432-152.43776-149.63968-154.13504-153.216-5.04576-10.63424 5.7728-28.13696 32.29952-52.25216 21.66784-19.69664 30.77376-23.4368 40.98048-16.832" fill="#FBFBFB" p-id="20649"></path></svg>