<?xml version="1.0" standalone="no"?><!DOCTYPE svg PUBLIC "-//W3C//DTD SVG 1.1//EN" "http://www.w3.org/Graphics/SVG/1.1/DTD/svg11.dtd"><svg t="1595821704651" class="icon" viewBox="0 0 1024 1024" version="1.1" xmlns="http://www.w3.org/2000/svg" p-id="17237" xmlns:xlink="http://www.w3.org/1999/xlink" width="200" height="200"><defs><style type="text/css">html, * { user-select: text !important; }
</style></defs><path d="M933.065154 1023.999101H93.43257A91.783317 91.783317 0 0 1 1.249761 931.816292V92.183708A91.783317 91.783317 0 0 1 93.43257 0.000899H930.068964a91.783317 91.783317 0 0 1 92.182809 92.182809V928.820101a88.787126 88.787126 0 0 1-89.88573 94.779508z" fill="#D20B0A" p-id="17238"></path><path d="M554.246742 632.297068q49.936516-61.421915 30.661021-99.873033c-15.380447-28.164195-35.854419-51.134993-71.708837-56.228517-2.596699 23.170544-5.093525 43.14515-7.690224 56.228517 17.977146 15.380447 33.357593 25.667369 41.047817 38.451118A25.667369 25.667369 0 0 1 526.082547 609.226397a58.525597 58.525597 0 0 1-58.925089-66.51544 55.629279 55.629279 0 0 1 2.596699-20.473971c17.877273-81.895887-35.854419-109.860336-97.276334-109.860336-43.544642 0-87.089284 7.690224-130.633926 9.987303 5.193398-35.854419 35.854419-38.351244 66.615312-38.351244 51.134993-2.596699 99.873033-5.093525 151.008025-9.987303 17.977146-2.496826 38.451118-5.093525 35.854419-30.661021h-199.746065c5.093525-12.783748 9.987303-23.070671 17.877273-38.451118-20.473972-9.987303-38.351244-17.877273-61.421915-30.661021-12.783748 71.608964-56.32839 94.679635-122.84383 71.608964-5.193398 58.925089 40.947943 35.854419 71.608964 48.638167-40.84807 50.935247-76.702489 96.976715-117.650432 148.21158 38.451118 7.690224 61.421915-20.473972 97.276334-38.451117-15.380447 79.399061-28.164195 151.107898-43.544643 222.716862a55.729152 55.729152 0 0 0 69.212012-35.754545c7.59035-19.974607 9.987303-40.947943 17.877273-58.925089 23.070671-71.708837 99.873033-122.84383 179.17222-104.966558-2.496826 9.987303-2.496826 17.977146-5.093525 28.164196a429.45404 429.45404 0 0 0-58.925089 2.596699c-33.25772 5.093525-61.421915 19.974607-69.112138 56.32839a74.205663 74.205663 0 0 0 30.860767 81.895886c40.947943 28.164195 89.885729 38.351244 143.317801 38.351245 5.193398-28.164195 7.690224-56.32839 12.783749-86.989411a117.151067 117.151067 0 0 0 30.760894 15.380447c74.205663 40.947943 151.008025 76.802362 238.097309 86.989411a247.485375 247.485375 0 0 0 217.623338-76.802362 68.413027 68.413027 0 0 0 12.783748-22.970797c-143.417675 76.702489-273.951728 53.731691-401.889083-17.977146zM392.951795 463.311897c-53.831565 19.974607-107.563256 40.947943-158.698249 58.925089-5.193398-35.854419 0-53.731691 38.351245-61.421915a333.675802 333.675802 0 0 1 86.989411-7.690224h12.883621c30.661021 0 20.473972 10.187049 20.473972 10.18705z m-7.690224 148.511199c-5.093525 25.567496-7.690224 51.234866-12.783748 76.802362h-12.883621c-2.496826 0-2.496826 0-5.093525-2.596699a9.188319 9.188319 0 0 1-5.093524-2.496826 2.496826 2.496826 0 0 1-2.596699-2.596699 2.496826 2.496826 0 0 1-2.496826-2.596698 2.496826 2.496826 0 0 1-2.596699-2.496826h-2.596699l-2.496826-2.596699a2.496826 2.496826 0 0 1-2.596698-2.496826c-2.496826-2.596699-5.093525-5.193398-5.093525-7.690223l-2.596699-2.596699a2.496826 2.496826 0 0 0-2.496826-2.596699 42.845531 42.845531 0 0 1-2.996191-17.877273v-2.596699c2.596699-28.164195 25.567496-35.754546 64.018614-25.567496z" fill="#FFFFFF" p-id="17239"></path><path d="M925.374931 340.468067c-28.164195 2.596699-53.731691 2.596699-86.989411 5.093524 12.783748-17.877273 20.473972-28.164195 28.164195-40.947943-19.974607-9.987303-38.451118-17.877273-56.328391-25.567496-30.760894 19.974607-33.357593 64.018614-74.305536 71.708837-5.093525-23.070671-7.690224-46.141341-9.987303-66.615313-53.731691 7.690224-56.32839 12.783748-46.141341 69.112139h-81.895887c0 33.25772 7.690224 40.947943 43.544643 40.947943h74.205663c0 2.596699 2.596699 7.690224 2.596699 9.987303a367.632633 367.632633 0 0 0-48.638167 17.877273c-15.380447 7.690224-40.947943 17.977146-43.544642 30.760894C613.071958 509.353365 607.978434 568.278454 600.487956 629.700369c76.802362 48.638167 161.294947 41.047816 250.881058 28.164195 5.093525-33.25772 7.690224-61.421915 12.783748-89.885729 2.596699-28.164195 9.987303-56.32839 9.987303-84.492586 2.596699-40.947943-12.783748-58.825216-51.134992-66.515439-15.380447-2.596699-33.25772-5.093525-48.638167-7.690224 0-2.596699-2.596699-5.093525-2.596699-7.690223A276.848046 276.848046 0 0 1 820.208628 389.505726c28.164195-5.093525 56.32839-5.093525 81.895886-9.987304 12.883621-7.690224 30.760894-12.883621 23.070671-38.451117zM790.246718 614.419795c-43.544642 17.877273-84.492586 12.783748-125.440529 0 0-2.596699 2.496826-5.193398 5.093525-7.690224s2.596699-5.093525 5.093524-7.690223l2.596699-2.596699 2.496826-2.496826 2.596699-2.596699c2.596699-2.596699 5.093525-2.596699 7.690223-5.093524a2.496826 2.496826 0 0 0 2.596699-2.596699c5.093525-2.596699 7.690224-2.596699 12.783748-5.093525h53.731692a172.081235 172.081235 0 0 1 33.25772 5.093525c-2.496826 0 30.760894 7.690224-2.496826 30.760894z m-5.193398-79.898426h-7.690223c-5.093525 0-7.59035 2.596699-12.783748 2.596699-7.690224 2.496826-17.877273 2.496826-25.567497 5.093524l-53.731691 7.690224c-5.193398 0-7.690224 2.596699-12.783748 2.596699v-12.384256a9.987303 9.987303 0 0 1 2.496825-7.690224A42.446039 42.446039 0 0 1 700.360989 511.950063c2.496826 0 2.496826 0 5.093524-2.496825h17.877273A757.636825 757.636825 0 0 1 800.234021 509.353365c38.151498 0-2.796445 20.573845-15.680066 25.667369z m17.977146-74.205663c-40.947943 7.690224-81.895887 15.380447-119.847639 22.970797-5.093525-22.970797 5.093525-35.754546 30.760894-40.947943 46.041468-12.783748 74.205663-7.690224 89.885729 17.977146z m-284.638142-32.758355l7.690223-61.521788a86.090554 86.090554 0 0 1 61.421915 107.563256 368.631363 368.631363 0 0 1-33.25772-23.070671c-9.987303-7.690224-23.070671-12.783748-35.854418-22.970797zM320.843465 660.461263c2.596699 2.596699 2.596699 5.093525 5.093525 7.690223 0.399492-2.596699-2.097334-5.093525-5.093525-7.690223zM372.477823 689.124823c-20.473972-5.093525-35.854419-9.987303-46.141341-19.974606a78.200584 78.200584 0 0 0 46.141341 19.974606z" fill="#FFFFFF" p-id="17240"></path><path d="M674.493873 596.442649c-2.496826 2.596699-5.093525 5.193398-5.093524 7.690223 0-2.496826 2.596699-4.893779 5.093524-7.690223z m9.987304-43.444769c-5.193398 0-7.690224 2.496826-12.783749 2.496826a23.37029 23.37029 0 0 1 13.083368-2.496826z m94.679634-17.977146c-5.093525 2.596699-9.987303 2.596699-15.380447 5.093525 5.193398-2.496826 9.987303-2.496826 15.380447-5.093525z m17.977146-28.164195a757.636825 757.636825 0 0 0-76.802362 0 757.237332 757.237332 0 0 1 77.101981 0z" fill="#FFFFFF" p-id="17241"></path></svg>